<?xml version="1.0" encoding="utf-8"?>
<!-- Generator: Adobe Illustrator 21.0.0, SVG Export Plug-In . SVG Version: 6.00 Build 0)  -->
<svg version="1.1" id="Capa_2" xmlns="http://www.w3.org/2000/svg" xmlns:xlink="http://www.w3.org/1999/xlink" x="0px" y="0px"
	 viewBox="0 0 1702 1224" style="enable-background:new 0 0 1702 1224;" xml:space="preserve">
<style type="text/css">
	.st0{opacity:0.39;fill:#B0DEFF;}
	.st1{opacity:0.14;fill:#93CEFD;}
	.st2{opacity:0.14;fill:#9CD6FF;}
	.st3{opacity:0.14;fill:#B0DEFF;}
	.st4{opacity:0.14;fill:none;}
</style>
<path class="st0" d="M215.7,74.3c0,85.1-65.9,154.2-147.3,154.2c-32.3,0-62.2-10.9-86.4-29.3V-6h212.2
	C207.9,17.4,215.7,44.8,215.7,74.3z"/>
<path class="st0" d="M356.7,1159.7c0,40.7-9.9,78.9-27.3,112.3H-4V973.7c37.8-30.4,85.1-48.5,136.5-48.5
	C256.3,925.1,356.7,1030.2,356.7,1159.7z"/>
<path class="st1" d="M1732.7,88.3v581.1c-3,5.6-6.1,11.2-9.3,16.7c-33.4,57.9-76,109.4-125.7,152.2
	c-98.3,84.8-224.2,135.7-361.4,135.7c-314.1,0-568.6-266.4-568.6-595.1c0-146.8,50.8-281.1,134.9-384.9h867.4
	C1693.7,23.2,1714.7,54.7,1732.7,88.3z"/>
<path class="st2" d="M1732.7-6v681.1c-3,3.7-6.1,7.4-9.3,11c-63.7,73.6-145.8,129.5-238.5,160c-51.2,16.8-105.6,25.9-162.1,25.9
	c-298.6,0-540.6-253.3-540.6-565.8c0-115.4,33-222.7,89.7-312.2H1732.7z"/>
<path class="st3" d="M1732.7-6v800.2c-42.3,20.5-87.5,35.5-134.9,44c-30,5.4-60.9,8.2-92.4,8.2c-6.9,0-13.7-0.1-20.5-0.4
	C1195.8,834.8,964.8,586,964.8,280.7c0-104.6,27.1-202.7,74.5-286.7H1732.7z"/>
<rect x="-4" y="240" class="st4" width="1750.7" height="1032"/>
</svg>
