<?xml version="1.0" encoding="utf-8"?>
<!-- Generator: Adobe Illustrator 21.0.0, SVG Export Plug-In . SVG Version: 6.00 Build 0)  -->
<svg version="1.1" id="b578e6b2-033c-40ac-a2d2-0bd8957fb38d"
	 xmlns="http://www.w3.org/2000/svg" xmlns:xlink="http://www.w3.org/1999/xlink" x="0px" y="0px" viewBox="0 0 309 189"
	 style="enable-background:new 0 0 309 189;" xml:space="preserve">
<style type="text/css">
	.st0{fill:#283D61;}
	.st1{fill:#FFFFFF;}
	.st2{fill:#FF6583;}
	.st3{fill:#FFD09B;}
	.st4{opacity:0.2;enable-background:new    ;}
	.st5{fill:#9F616A;}
	.st6{fill:#6089CB;}
	.st7{fill:#294659;}
	.st8{opacity:0.2;}
</style>
<path class="st0" d="M92.9,22.9v1.4H54.4c-12.3,0-22.3,10-22.3,22.3V128c0,12.3,10,22.3,22.3,22.3h210.9c12.3,0,22.3-10,22.3-22.3
	l0,0V46.6c0-12.3-10-22.3-22.3-22.3l0,0H120.2v-1.4H92.9z"/>
<path class="st1" d="M54.6,29h210.6c9.2,0,16.6,7.4,16.6,16.6v81.9c0,9.2-7.4,16.6-16.6,16.6H54.6c-9.2,0-16.6-7.4-16.6-16.6v-9.9
	c4,1.6,8.7-0.3,10.3-4.3c0.4-1,0.6-2,0.6-3V63.6c0-4.4-3.5-7.9-7.9-7.9c-1,0-2,0.2-3,0.6V45.7C38,36.5,45.4,29,54.6,29z"/>
<circle class="st2" cx="116.4" cy="67.1" r="16.9"/>
<path class="st3" d="M189.7,144.3H75.3c-0.1,0-0.3,0-0.4,0L129,50.5c1-1.8,3.3-2.5,5.2-1.4c0.6,0.3,1.1,0.8,1.4,1.4l36.3,62.9l1.7,3
	L189.7,144.3z"/>
<polygon class="st4" points="189.7,144.3 150.7,144.3 169.8,116.5 171.2,114.5 171.9,113.4 173.6,116.5 "/>
<path class="st3" d="M253.4,144.3h-99l19.2-27.9l1.4-2l25-36.3c1.6-2.4,5.6-2.5,7.5-0.5c0.1,0.1,0.3,0.3,0.4,0.5L253.4,144.3z"/>
<path class="st5" d="M61.6,101.4c-1.2-1.5-1-3.7,0.5-4.9c0.2-0.1,0.3-0.3,0.5-0.4L70.2,65l5.5,1.8l-8.2,30.9
	c0.9,1.8,0.1,3.9-1.7,4.7C64.3,103.1,62.6,102.7,61.6,101.4L61.6,101.4z"/>
<polygon class="st6" points="65.5,81.5 69.6,85 75.2,89.9 77.7,77.1 78,75.7 78.2,74.7 72.4,64.6 67.7,64.9 67.3,64.9 67.3,65 
	67.3,65.7 66.3,74.5 66.2,74.7 "/>
<polygon class="st5" points="92,169.9 96,169.9 97.9,154.4 92,154.4 "/>
<path class="st7" d="M91,168.6h7.9l0,0c2.8,0,5,2.3,5,5v0.2H91V168.6z"/>
<polygon class="st5" points="50.1,169.5 54.1,169.5 56,154 50.1,154 "/>
<path class="st7" d="M49,168.2h7.9l0,0c2.8,0,5,2.3,5,5v0.2H49L49,168.2z"/>
<path class="st6" d="M46.8,162.7l10.8,1.6l15.7-53.3l16.7,53.6l12.1-1.6l-15.7-62.3v-4.9l-2.1-7.4l0.2-2l1.5-14l0.7-6.1l0-0.4
	c0.1-0.7-0.4-1.3-1-1.4l0,0l-5-1h-8.3l-4.9,1.3L67.3,65l-0.2,0l0.1,0.6l1.1,9.6l0.1,0.5l1.1,9.2l0.2,2c-9.5,6.9-9.8,13.8-9.8,13.8
	L46.8,162.7z"/>
<circle class="st5" cx="77.6" cy="51.4" r="8.1"/>
<rect x="75.8" y="79.3" transform="matrix(0.1297 -0.9916 0.9916 0.1297 -19.6048 152.3631)" class="st0" width="2.3" height="16.1"/>
<path class="st5" d="M106.5,87.9c-0.2,0.1-0.3,0.2-0.4,0.3l-15.8-4l-1.1-3.8l-5.9,0.9l1.2,6.9c0.2,1.1,1.1,2,2.3,2.1l18.4,1.9
	c0.8,1.7,2.9,2.5,4.6,1.6c1.7-0.8,2.5-2.9,1.6-4.6c-0.8-1.7-2.9-2.5-4.6-1.6C106.7,87.8,106.6,87.8,106.5,87.9L106.5,87.9z"/>
<path class="st6" d="M82.2,66.7l2.8-2.1c0.8-0.3,1.8,0.5,2,1.3l3.9,16.1l-8.2,5.9L81.6,86L82.2,66.7z"/>
<g class="st8">
	<path d="M66.3,74.5c0.7,0.3,1.4,0.5,2.1,0.7c0.2,0.1,0.5,0.1,0.7,0.2c1.5,0.4,3.1,0.7,4.7,0.8c0.7,0,1.4,0,2.1-0.1
		c0.7-0.1,1.4-0.2,2.2-0.4c0,0,0.1,0,0.1,0c1.5-0.4,2.8-1.2,3.9-2.2c0.3-0.2,0.5-0.5,0.7-0.8c1.2-1.5,1.8-3.5,1.5-5.4
		c0-0.2-0.1-0.4-0.1-0.5c-0.1-0.5-0.3-0.9-0.5-1.3c-0.1-0.2-0.2-0.4-0.3-0.6l-3.7-1.2h-7l-4.9,1.3l-0.3,0V65l-0.2,0l0.1,0.6
		L66.3,74.5z"/>
</g>
<path class="st7" d="M83.8,44.7c1.5-0.2,3.1-0.1,4.3,0.9c1.2,1,1.5,2.9,0.4,4c-1,0.9-2.5,0.7-3.8,1c-2.3,0.5-4,2.6-4.1,5
	c0,3.3,3.2,5.9,3.8,9.1c0.4,2.2-0.6,4.6-2.2,6.2c-1.6,1.6-3.9,2.4-6.2,2.7c-2.3,0.2-4.6-0.1-6.8-0.7c-2.2-0.6-4.4-1.4-6.2-2.8
	s-3.4-3.2-4-5.4c-0.6-2.2-0.2-4.8,1.4-6.4c1.8-1.9,4.7-2.6,6.2-4.8c1.7-2.4,1.1-5.8,2.5-8.4c0.9-1.7,2.7-2.9,4.5-3.5
	s3.8-0.8,5.8-0.8c1,0,2.1,0,3,0.3c1,0.4,1.8,1.2,1.8,2.3C84.4,44.4,83.8,44.7,83.8,44.7z"/>
<path class="st6" d="M28.7,174h90.8c0.2,0,0.3-0.1,0.3-0.3c0-0.2-0.1-0.3-0.3-0.3H28.7c-0.2,0-0.3,0.1-0.3,0.3
	C28.3,173.9,28.5,174,28.7,174L28.7,174z"/>
</svg>
