<?xml version="1.0" encoding="utf-8"?>
<!-- Generator: Adobe Illustrator 21.0.0, SVG Export Plug-In . SVG Version: 6.00 Build 0)  -->
<svg version="1.1" id="b578e6b2-033c-40ac-a2d2-0bd8957fb38d"
	 xmlns="http://www.w3.org/2000/svg" xmlns:xlink="http://www.w3.org/1999/xlink" x="0px" y="0px" viewBox="0 0 1005.3 465"
	 style="enable-background:new 0 0 1005.3 465;" xml:space="preserve">
<style type="text/css">
	.st0{fill:#6089CB;}
	.st1{fill:#F1F1F1;}
	.st2{fill:#E5E5E5;}
	.st3{fill:#283D61;}
	.st4{fill:#FFFFFF;}
	.st5{fill:#FF6583;}
	.st6{fill:#FFD09B;}
	.st7{opacity:0.2;enable-background:new    ;}
	.st8{fill:#9F616A;}
	.st9{fill:#294659;}
	.st10{opacity:0.2;}
</style>
<rect y="384.6" class="st0" width="981.7" height="2.5"/>
<path class="st1" d="M1005.3,193.5c0,85.2-50.6,114.9-113.1,114.9s-113.1-29.7-113.1-114.9S892.2,0,892.2,0
	S1005.3,108.4,1005.3,193.5z"/>
<polygon class="st2" points="888.1,295.4 889.3,224.2 937.5,136 889.4,213 890,180.9 923.2,117.1 890.1,172.4 890.1,172.4 
	891,114.8 926.6,64 891.2,105.7 891.8,0 888.1,139.9 888.4,134.2 852.2,78.8 887.8,145.3 884.4,209.6 884.3,207.9 842.6,149.7 
	884.2,214 883.8,222 883.7,222.1 883.7,222.8 875.2,386.2 886.6,386.2 888,301.8 929.5,237.6 "/>
<path class="st3" d="M249.4,3.9v4.3H132c-37.5,0-67.9,30.4-67.9,67.9v248.6c0,37.5,30.4,67.9,67.9,67.9h643.6
	c37.5,0,67.9-30.4,67.9-67.9c0,0,0,0,0,0V76.1c0-37.5-30.4-67.9-67.9-67.9h0H332.9V3.9L249.4,3.9z"/>
<path class="st4" d="M132.5,22.6h642.7c28,0,50.7,22.7,50.7,50.7v249.8c0,28-22.7,50.7-50.7,50.7H132.5c-28,0-50.7-22.7-50.7-50.7
	v-30.3c12.3,5,26.4-0.9,31.4-13.2c1.2-2.9,1.8-6,1.8-9.1V128.1c0-13.3-10.8-24.1-24.1-24.1c-3.1,0-6.2,0.6-9.1,1.8V73.4
	C81.8,45.4,104.5,22.6,132.5,22.6z"/>
<circle class="st5" cx="321.1" cy="138.7" r="51.6"/>
<path class="st6" d="M544.9,374.4H195.7c-0.4,0-0.9,0-1.3-0.1L359.5,88.2c3.1-5.6,10.2-7.5,15.8-4.4c1.8,1,3.3,2.5,4.4,4.4
	l110.8,192l5.3,9.2L544.9,374.4z"/>
<polygon class="st7" points="544.9,374.4 425.7,374.4 484.2,289.4 488.4,283.3 490.5,280.2 495.8,289.4 "/>
<path class="st6" d="M739.3,374.4h-302l58.5-85l4.2-6.1l76.3-110.8c5-7.3,17-7.7,22.9-1.4c0.4,0.4,0.8,0.9,1.1,1.4L739.3,374.4z"/>
<path class="st8" d="M153.8,243.5c-3.8-4.6-3.1-11.4,1.5-15.1c0.5-0.4,1-0.8,1.6-1.1l23.2-95l16.9,5.4L172,232.1
	c2.6,5.4,0.3,11.8-5.1,14.4C162.3,248.6,157,247.4,153.8,243.5L153.8,243.5z"/>
<polygon class="st0" points="165.8,182.7 178.2,193.4 195.5,208.3 203.2,169.2 204,165.1 204.6,161.9 187,131.3 172.4,132.1 
	171.4,132.2 171.4,132.4 171.2,134.5 168.2,161.4 168.1,162.1 "/>
<polygon class="st8" points="246.7,452.4 259,452.4 264.8,405.1 246.7,405.1 "/>
<path class="st9" d="M243.6,448.4l24.1,0h0c8.5,0,15.4,6.9,15.4,15.4v0.5l-39.5,0L243.6,448.4z"/>
<polygon class="st8" points="118.7,451.4 131,451.4 136.8,404.1 118.7,404.1 "/>
<path class="st9" d="M115.6,447.4l24.1,0h0c8.5,0,15.4,6.9,15.4,15.4v0.5l-39.5,0L115.6,447.4z"/>
<path class="st0" d="M108.9,430.5l33,5l48-162.5l51,163.5l37-5l-48-190v-15l-6.5-22.5l0.7-6.1l4.7-42.6l2-18.5l0.1-1.2
	c0.2-2.1-1.2-4-3.2-4.4l0,0l-15.4-3.2h-25.2l-14.9,4.1l-1,0.3l-0.5,0.1l0.2,1.9l3.5,29.2l0.2,1.6l3.4,28.1l0.7,6.2
	c-29,21-30,42-30,42L108.9,430.5z"/>
<circle class="st8" cx="202.9" cy="90.8" r="24.6"/>
<rect x="197.4" y="176" transform="matrix(0.1297 -0.9916 0.9916 0.1297 -23.9742 373.7834)" class="st3" width="7" height="49"/>
<path class="st8" d="M290.9,202.4c-0.5,0.3-0.9,0.6-1.3,1l-48.1-12.3l-3.3-11.6l-18.1,2.7l3.8,21.1c0.6,3.5,3.5,6.2,7,6.5l56.1,5.9
	c2.5,5.2,8.7,7.5,14,5c5.2-2.5,7.5-8.7,5-14c-2.5-5.2-8.7-7.5-14-5C291.6,201.9,291.2,202.1,290.9,202.4L290.9,202.4z"/>
<path class="st0" d="M216.9,137.5l8.5-6.5c2.3-0.9,5.4,1.6,6,4l12,49l-25,18l-3.5-5.5L216.9,137.5z"/>
<g class="st10">
	<path d="M168.2,161.4c2.1,0.8,4.3,1.6,6.5,2.2c0.7,0.2,1.4,0.4,2.1,0.6c4.7,1.3,9.5,2.1,14.3,2.3c2.1,0.1,4.2,0,6.3-0.2
		c2.2-0.2,4.4-0.7,6.6-1.3c0.1,0,0.2,0,0.2-0.1c4.5-1.3,8.6-3.6,12-6.8c0.8-0.7,1.5-1.5,2.1-2.4c3.8-4.6,5.4-10.6,4.6-16.5
		c-0.1-0.5-0.2-1.1-0.3-1.6c-0.4-1.4-0.9-2.8-1.5-4.1c-0.3-0.6-0.6-1.2-0.9-1.8l-11.3-3.8h-21.5l-14.9,4.1l-1,0.1l0,0.2l-0.5,0.1
		l0.2,1.9L168.2,161.4z"/>
</g>
<path class="st9" d="M221.7,70.5c4.6-0.6,9.6-0.2,13.2,2.8s4.7,9,1.3,12.2c-3,2.8-7.7,2.1-11.7,2.9c-7.1,1.6-12.2,7.9-12.4,15.2
	c0.1,10.2,9.8,17.9,11.6,27.9c1.2,6.8-1.7,14-6.7,18.9s-11.8,7.4-18.8,8.1s-13.9-0.4-20.6-2.1c-6.7-1.8-13.4-4.3-19-8.4
	s-10.3-9.8-12.1-16.6c-1.8-6.7-0.5-14.5,4.2-19.6c5.4-5.9,14.3-8,18.9-14.5c5.2-7.3,3.3-17.7,7.5-25.6c2.8-5.3,8.1-8.9,13.8-10.8
	s11.7-2.3,17.7-2.5c3.1-0.1,6.4-0.1,9.3,1s5.5,3.8,5.6,6.9S221.7,70.5,221.7,70.5z"/>
<path class="st0" d="M53.4,465h277c0.6,0,1-0.4,1-1s-0.4-1-1-1h-277c-0.6,0-1,0.4-1,1S52.9,465,53.4,465L53.4,465z"/>
</svg>
