<?xml version="1.0" encoding="utf-8"?>
<!-- Generator: Adobe Illustrator 21.0.0, SVG Export Plug-In . SVG Version: 6.00 Build 0)  -->
<svg version="1.1" id="ace505a7-e733-4353-98c8-975df89a5922"
	 xmlns="http://www.w3.org/2000/svg" xmlns:xlink="http://www.w3.org/1999/xlink" x="0px" y="0px" viewBox="0 0 728.1 680"
	 style="enable-background:new 0 0 728.1 680;" xml:space="preserve">
<style type="text/css">
	.st0{fill:#3F3D56;}
	.st1{fill:#E6E6E6;}
	.st2{fill:#FFFFFF;}
	.st3{fill:#72A0FF;}
</style>
<path id="a55003b0-0446-4784-a3ce-c481a9759178" class="st0" d="M554.8,161.6h-3.7V59.2c0-32.7-26.5-59.2-59.2-59.2H275
	c-32.7,0-59.2,26.5-59.2,59.2v561.5c0,32.7,26.5,59.2,59.2,59.2h216.9c32.7,0,59.2-26.5,59.2-59.2V234.5h3.7V161.6z"/>
<path id="ad332593-d547-4870-8db7-c0503e6eb31e" class="st1" d="M539,55.3v569.5c0,24.8-20.1,44.9-44.9,44.9H272.8
	c-24.8,0-44.9-20.1-44.9-44.9V55.3c0-24.8,20.1-44.9,44.9-44.9h26.8c-4.4,10.9,0.8,23.4,11.7,27.8c2.5,1,5.3,1.6,8,1.6h126.2
	c11.8,0,21.4-9.6,21.3-21.4c0-2.8-0.5-5.5-1.6-8h28.8C518.9,10.4,539,30.5,539,55.3L539,55.3z"/>
<path class="st2" d="M515.4,639.9h-264c-4.7,0-8.5-3.8-8.5-8.5v-555c0-4.7,3.8-8.5,8.5-8.5h264c4.7,0,8.5,3.8,8.5,8.5v555
	C523.9,636.1,520.1,639.9,515.4,639.9z"/>
<circle id="edacdc74-dfad-4c1d-939b-d6c7a98a2115" class="st1" cx="382.4" cy="182.6" r="72.7"/>
<circle id="aec4df6d-8b06-4bbe-8d40-2c8bcc37cf40" class="st2" cx="381.4" cy="182.6" r="62.9"/>
<path id="b468b121-27e1-4684-879a-d4a6b6510a38" class="st3" d="M382.8,146.9c-19.8,0-35.9,16.1-35.9,35.9
	c0,19.8,16.1,35.9,35.9,35.9c19.8,0,35.9-16.1,35.9-35.9C418.7,163,402.6,146.9,382.8,146.9L382.8,146.9z M382.8,157.7
	c5.9,0,10.8,4.8,10.8,10.8c0,5.9-4.8,10.8-10.8,10.8c-5.9,0-10.8-4.8-10.8-10.8C372.1,162.5,376.9,157.7,382.8,157.7
	C382.8,157.7,382.8,157.7,382.8,157.7z M382.8,209.4c-8.6,0-16.7-4.3-21.5-11.5c0.2-7.2,14.3-11.1,21.5-11.1s21.3,3.9,21.5,11.1
	C399.5,205.1,391.4,209.4,382.8,209.4L382.8,209.4z"/>
<rect id="af237293-25a3-489f-aa06-65014690590a" x="316.6" y="279.7" class="st1" width="125.8" height="9.5"/>
<rect id="aecd757e-3845-4054-8ef4-8f3b3f1464a2" x="299.8" y="304.3" class="st1" width="158.4" height="9.5"/>
<rect id="a528162f-764e-4523-bc44-e6dc5465582a" x="271.9" y="374.9" class="st1" width="223.1" height="223.1"/>
<rect id="ac408f88-9589-4a26-924c-e7a781ddb6bc" x="275.4" y="379.6" class="st2" width="213.7" height="213.7"/>
<g id="be47c712-4ebf-4226-80ad-879612060a69">
	<rect id="fadc6105-0551-448d-b6d9-436c4cc2b7a7" x="319.4" y="400.3" class="st1" width="83.2" height="6.3"/>
	<rect id="a4376b16-bb23-442d-8938-a8bcab4f190c" x="319.4" y="418.6" class="st3" width="128.4" height="6.3"/>
	<rect id="ae6c1c25-1aef-4af7-84b7-a99cb79f7c28" x="320.8" y="436.1" class="st1" width="104.7" height="6.3"/>
	<rect id="ad31106a-9486-4fc6-9d92-2d07f7dcec19" x="319.4" y="455.3" class="st1" width="61.1" height="6.3"/>
	<rect id="e133e237-d12d-4331-8259-b0f1b7869d24" x="319.4" y="474" class="st3" width="92.2" height="6.3"/>
	<rect id="a9ae706b-b3a6-4b62-8ac7-3a7f4cd0039d" x="319.4" y="492.9" class="st1" width="83.2" height="6.3"/>
	<rect id="bd082349-b2f2-4b60-be0c-57e16efac88b" x="319.4" y="511.2" class="st3" width="128.4" height="6.3"/>
	<rect id="ac0416d6-b57f-4bc7-9ff0-bb8dbe215cb0" x="320.8" y="528.7" class="st1" width="104.7" height="6.3"/>
	<rect id="b9702d28-4113-492b-a4b0-dbfc92fa702e" x="319.4" y="547.9" class="st1" width="61.1" height="6.3"/>
	<rect id="b41357bb-831a-49ca-b340-115c840dd657" x="319.4" y="566.6" class="st1" width="92.2" height="6.3"/>
</g>
</svg>
