<?xml version="1.0" encoding="utf-8"?>
<!-- Generator: Adobe Illustrator 21.0.0, SVG Export Plug-In . SVG Version: 6.00 Build 0)  -->
<svg version="1.1" id="Capa_1" xmlns="http://www.w3.org/2000/svg" xmlns:xlink="http://www.w3.org/1999/xlink" x="0px" y="0px"
	 viewBox="0 0 3576 1728" style="enable-background:new 0 0 3576 1728;" xml:space="preserve">
<style type="text/css">
	.st0{fill:#FFDA1D;stroke:#FFDA1D;stroke-width:40;stroke-miterlimit:10;}
	.st1{fill:none;stroke:#FFDA1D;stroke-width:40;stroke-miterlimit:10;}
</style>
<path class="st0" d="M3692,736.6V855c-18.1,12.8-36,25.7-53.3,38.8l-6.5,4.9l-6.3,4.9l-12.6,9.7c-8.5,6.5-16.8,13.1-25.1,19.6
	c-8.5,6.5-16.6,13.2-24.8,19.9l-12.3,9.9l-12.1,10c-64.9,53.7-126.5,109.7-190.4,166.4c-32,28.3-64.9,56.7-99.4,84.9
	c-34.7,28.1-71,56.1-110.2,83.1s-81.3,53.1-126.5,77.5c-5.6,3.1-11.2,6.1-17,9.2l-17.5,8.8l-8.7,4.4c-2.9,1.4-5.8,3-8.9,4.3
	l-18.1,8.5c-11.9,5.7-24.4,11-36.7,16.4l-9.2,4.1l-9.4,3.9l-19,7.7c-3.3,1.2-6.3,2.5-9.6,3.8l-9.8,3.6l-19.5,7.3
	c-6.5,2.4-13.2,4.7-19.7,7l-19.9,6.8c-6.5,2.3-13.4,4.3-20.1,6.5l-20.2,6.4c-6.7,2.2-13.6,4.1-20.4,6.1l-20.6,5.8
	c-55.1,15.2-111.7,27.9-168.8,38.4c-57.1,10.5-114.7,18.9-172.6,25.6c-28.9,3.1-57.8,6.3-86.7,8.6l-21.7,1.9l-5.4,0.4l-5.4,0.3
	l-10.8,0.8l-43.4,3.1l-43.4,2.4c-7.2,0.3-14.5,0.9-21.7,1.1l-21.7,0.9l-21.7,0.9l-10.8,0.4c-3.6,0.1-7.2,0.2-10.8,0.3l-43.2,1
	c-7.2,0.1-14.5,0.4-21.7,0.4l-21.5,0.2l-43.2,0.3l-43-0.2c-14.3-0.1-28.7-0.1-43-0.3c-28.5-0.4-57.1-0.9-85.6-1.8l-42.8-1.2
	l-42.8-1.7l-21.3-0.9l-21.3-1.1l-42.6-2.1c-14.3-0.8-28.4-1.7-42.6-2.5c-14.3-0.9-28.4-1.7-42.6-2.8l-42.5-3.1
	c-7-0.4-14.1-1.1-21.3-1.7l-21.1-1.8c-28.4-2.2-56.6-5.1-84.7-7.7c-14.1-1.3-28.2-3-42.3-4.4l-21.1-2.2c-7-0.8-14.1-1.7-21-2.4
	l-42.1-5l-41.9-5.4c-55.8-7.5-111.3-15.6-166.2-24.9c-6.9-1.1-13.7-2.2-20.6-3.4l-20.6-3.6c-13.7-2.4-27.5-4.7-41-7.4l-40.8-7.7
	l-40.7-8.2c-54-11.1-107.5-23.1-160.4-36l-39.6-9.8l-39.2-10.3c-26-7-52-14.1-77.7-21.5c-102.8-29.7-202.9-63.1-298.5-100.7
	c-47.9-18.8-94.7-38.3-140.2-59l-17-7.8l-16.8-7.9c-11.2-5.2-22.2-10.7-33.4-16c-22-10.9-43.9-21.9-65.2-33.2
	c-1.4-0.8-3.1-1.7-4.5-2.4v-31.7c10.1,4.9,20.4,9.7,30.7,14.6c22,10.4,44.6,20.3,67.2,30.1c11.4,4.9,22.8,9.7,34.3,14.5l17.2,7.2
	l17.3,7c11.6,4.7,23.3,9.2,35.1,13.8c11.7,4.5,23.5,8.9,35.4,13.4c23.7,8.7,47.7,17.3,71.9,25.6c96.7,33.1,196.6,62.6,299.2,88
	c51.1,12.7,103,24.7,155.2,35.5c52.2,10.8,105.2,20.7,158.3,29.8l39.9,6.6l40.1,6.3c13.4,2.1,26.7,4,40.3,6l20.1,2.9
	c6.7,1,13.6,1.8,20.2,2.8c53.8,7.4,108,13.6,162.4,19.2l40.8,4.1l40.8,3.6c6.9,0.6,13.6,1.2,20.4,1.8l20.4,1.7
	c13.7,1,27.3,2.2,41,3.1c27.5,1.8,54.7,3.8,82.2,5.2l20.6,1.1c6.9,0.4,13.7,0.8,20.6,1.1l41.2,1.9c13.7,0.7,27.5,1.1,41.2,1.7
	c13.7,0.4,27.5,1,41.2,1.4l41.4,1l20.6,0.6l20.6,0.3l41.4,0.6l41.4,0.1c27.5,0.2,55.1-0.1,82.6-0.2c13.7,0,27.5-0.3,41.2-0.6l41-0.8
	l41-1.3l20.4-0.7c6.9-0.2,13.6-0.6,20.4-0.9l40.8-1.9c3.4-0.1,6.7-0.3,10.1-0.6l10.1-0.7l20.2-1.2l20.2-1.2c6.7-0.4,13.4-1,20.2-1.5
	l40.3-3.1l39.9-3.9l9.9-1l5.1-0.4l4.9-0.6l19.9-2.2c26.6-2.8,52.6-6.6,78.6-10.2c51.9-7.7,102.8-17,152.1-28s97-23.9,142.7-38.8
	c45.7-14.8,89.4-31.6,130.8-50.1c83.1-37,157.6-81.1,227.7-129.8c70.1-48.7,136.2-101.9,204.5-155.9
	c68.1-54.1,137.9-109.4,213.8-162.2c75.9-53,157.4-103.6,246.1-149.3C3664,750.4,3677.9,743.5,3692,736.6z"/>
<path class="st1" d="M3692,736.6V855c-18.1,12.8-36,25.7-53.3,38.8l-6.5,4.9l-6.3,4.9l-12.6,9.7c-8.5,6.5-16.8,13.1-25.1,19.6
	c-8.5,6.5-16.6,13.2-24.8,19.9l-12.3,9.9l-12.1,10c-64.9,53.7-126.5,109.7-190.4,166.4c-32,28.3-64.9,56.7-99.4,84.9
	c-34.7,28.1-71,56.1-110.2,83.1s-81.3,53.1-126.5,77.5c-5.6,3.1-11.2,6.1-17,9.2l-17.5,8.8l-8.7,4.4c-2.9,1.4-5.8,3-8.9,4.3
	l-18.1,8.5c-11.9,5.7-24.4,11-36.7,16.4l-9.2,4.1l-9.4,3.9l-19,7.7c-3.3,1.2-6.3,2.5-9.6,3.8l-9.8,3.6l-19.5,7.3
	c-6.5,2.4-13.2,4.7-19.7,7l-19.9,6.8c-6.5,2.3-13.4,4.3-20.1,6.5l-20.2,6.4c-6.7,2.2-13.6,4.1-20.4,6.1l-20.6,5.8
	c-55.1,15.2-111.7,27.9-168.8,38.4c-57.1,10.5-114.7,18.9-172.6,25.6c-28.9,3.1-57.8,6.3-86.7,8.6l-21.7,1.9l-5.4,0.4l-5.4,0.3
	l-10.8,0.8l-43.4,3.1l-43.4,2.4c-7.2,0.3-14.5,0.9-21.7,1.1l-21.7,0.9l-21.7,0.9l-10.8,0.4c-3.6,0.1-7.2,0.2-10.8,0.3l-43.2,1
	c-7.2,0.1-14.5,0.4-21.7,0.4l-21.5,0.2l-43.2,0.3l-43-0.2c-14.3-0.1-28.7-0.1-43-0.3c-28.5-0.4-57.1-0.9-85.6-1.8l-42.8-1.2
	l-42.8-1.7l-21.3-0.9l-21.3-1.1l-42.6-2.1c-14.3-0.8-28.4-1.7-42.6-2.5c-14.3-0.9-28.4-1.7-42.6-2.8l-42.5-3.1
	c-7-0.4-14.1-1.1-21.3-1.7l-21.1-1.8c-28.4-2.2-56.6-5.1-84.7-7.7c-14.1-1.3-28.2-3-42.3-4.4l-21.1-2.2c-7-0.8-14.1-1.7-21-2.4
	l-42.1-5l-41.9-5.4c-55.8-7.5-111.3-15.6-166.2-24.9c-6.9-1.1-13.7-2.2-20.6-3.4l-20.6-3.6c-13.7-2.4-27.5-4.7-41-7.4l-40.8-7.7
	l-40.7-8.2c-54-11.1-107.5-23.1-160.4-36l-39.6-9.8l-39.2-10.3c-26-7-52-14.1-77.7-21.5c-102.8-29.7-202.9-63.1-298.5-100.7
	c-47.9-18.8-94.7-38.3-140.2-59l-17-7.8l-16.8-7.9c-11.2-5.2-22.2-10.7-33.4-16c-22-10.9-43.9-21.9-65.2-33.2
	c-1.4-0.8-3.1-1.7-4.5-2.4v-31.7c10.1,4.9,20.4,9.7,30.7,14.6c22,10.4,44.6,20.3,67.2,30.1c11.4,4.9,22.8,9.7,34.3,14.5l17.2,7.2
	l17.3,7c11.6,4.7,23.3,9.2,35.1,13.8c11.7,4.5,23.5,8.9,35.4,13.4c23.7,8.7,47.7,17.3,71.9,25.6c96.7,33.1,196.6,62.6,299.2,88
	c51.1,12.7,103,24.7,155.2,35.5c52.2,10.8,105.2,20.7,158.3,29.8l39.9,6.6l40.1,6.3c13.4,2.1,26.7,4,40.3,6l20.1,2.9
	c6.7,1,13.6,1.8,20.2,2.8c53.8,7.4,108,13.6,162.4,19.2l40.8,4.1l40.8,3.6c6.9,0.6,13.6,1.2,20.4,1.8l20.4,1.7
	c13.7,1,27.3,2.2,41,3.1c27.5,1.8,54.7,3.8,82.2,5.2l20.6,1.1c6.9,0.4,13.7,0.8,20.6,1.1l41.2,1.9c13.7,0.7,27.5,1.1,41.2,1.7
	c13.7,0.4,27.5,1,41.2,1.4l41.4,1l20.6,0.6l20.6,0.3l41.4,0.6l41.4,0.1c27.5,0.2,55.1-0.1,82.6-0.2c13.7,0,27.5-0.3,41.2-0.6l41-0.8
	l41-1.3l20.4-0.7c6.9-0.2,13.6-0.6,20.4-0.9l40.8-1.9c3.4-0.1,6.7-0.3,10.1-0.6l10.1-0.7l20.2-1.2l20.2-1.2c6.7-0.4,13.4-1,20.2-1.5
	l40.3-3.1l39.9-3.9l9.9-1l5.1-0.4l4.9-0.6l19.9-2.2c26.6-2.8,52.6-6.6,78.6-10.2c51.9-7.7,102.8-17,152.1-28s97-23.9,142.7-38.8
	c45.7-14.8,89.4-31.6,130.8-50.1c83.1-37,157.6-81.1,227.7-129.8c70.1-48.7,136.2-101.9,204.5-155.9
	c68.1-54.1,137.9-109.4,213.8-162.2c75.9-53,157.4-103.6,246.1-149.3C3664,750.4,3677.9,743.5,3692,736.6z"/>
</svg>
