<?xml version="1.0" encoding="utf-8"?>
<!-- Generator: Adobe Illustrator 21.0.0, SVG Export Plug-In . SVG Version: 6.00 Build 0)  -->
<svg version="1.1" id="ace505a7-e733-4353-98c8-975df89a5922"
	 xmlns="http://www.w3.org/2000/svg" xmlns:xlink="http://www.w3.org/1999/xlink" x="0px" y="0px" viewBox="0 0 138 199"
	 style="enable-background:new 0 0 138 199;" xml:space="preserve">
<style type="text/css">
	.st0{fill:#3F3D56;}
	.st1{fill:#E6E6E6;}
	.st2{fill:#FFFFFF;}
	.st3{fill:#72A0FF;}
</style>
<path id="a55003b0-0446-4784-a3ce-c481a9759178" class="st0" d="M109,56.2h-0.8V32.8c0-7.5-6.1-13.5-13.5-13.5H45.1
	c-7.5,0-13.5,6.1-13.5,13.5v128.2c0,7.5,6.1,13.5,13.5,13.5h49.5c7.5,0,13.5-6.1,13.5-13.5V72.9h0.8V56.2z"/>
<path id="ad332593-d547-4870-8db7-c0503e6eb31e" class="st1" d="M105.4,32v130c0,5.7-4.6,10.3-10.3,10.3H44.6
	c-5.7,0-10.3-4.6-10.3-10.3V32c0-5.7,4.6-10.3,10.3-10.3h6.1c-1,2.5,0.2,5.3,2.7,6.3c0.6,0.2,1.2,0.4,1.8,0.4H84
	c2.7,0,4.9-2.2,4.9-4.9c0-0.6-0.1-1.3-0.4-1.8h6.6C100.8,21.7,105.4,26.3,105.4,32L105.4,32z"/>
<path class="st2" d="M100,165.4H39.7c-1.1,0-1.9-0.9-1.9-1.9V36.8c0-1.1,0.9-1.9,1.9-1.9H100c1.1,0,1.9,0.9,1.9,1.9v126.7
	C101.9,164.6,101.1,165.4,100,165.4z"/>
<circle id="edacdc74-dfad-4c1d-939b-d6c7a98a2115" class="st1" cx="69.6" cy="61" r="16.6"/>
<circle id="aec4df6d-8b06-4bbe-8d40-2c8bcc37cf40" class="st2" cx="69.4" cy="61" r="14.4"/>
<path id="b468b121-27e1-4684-879a-d4a6b6510a38" class="st3" d="M69.7,52.9c-4.5,0-8.2,3.7-8.2,8.2s3.7,8.2,8.2,8.2s8.2-3.7,8.2-8.2
	C77.9,56.5,74.2,52.9,69.7,52.9L69.7,52.9z M69.7,55.3c1.3,0,2.5,1.1,2.5,2.5c0,1.3-1.1,2.5-2.5,2.5c-1.3,0-2.5-1.1-2.5-2.5
	C67.3,56.4,68.4,55.3,69.7,55.3L69.7,55.3z M69.7,67.1c-2,0-3.8-1-4.9-2.6c0-1.6,3.3-2.5,4.9-2.5s4.9,0.9,4.9,2.5
	C73.5,66.2,71.7,67.1,69.7,67.1L69.7,67.1z"/>
<rect id="af237293-25a3-489f-aa06-65014690590a" x="54.6" y="83.2" class="st1" width="28.7" height="2.2"/>
<rect id="aecd757e-3845-4054-8ef4-8f3b3f1464a2" x="50.8" y="88.8" class="st1" width="36.2" height="2.2"/>
<rect id="a528162f-764e-4523-bc44-e6dc5465582a" x="44.4" y="104.9" class="st1" width="50.9" height="50.9"/>
<rect id="ac408f88-9589-4a26-924c-e7a781ddb6bc" x="45.2" y="106" class="st2" width="48.8" height="48.8"/>
<g id="be47c712-4ebf-4226-80ad-879612060a69">
	<rect id="fadc6105-0551-448d-b6d9-436c4cc2b7a7" x="55.3" y="110.7" class="st1" width="19" height="1.4"/>
	<rect id="a4376b16-bb23-442d-8938-a8bcab4f190c" x="55.3" y="114.9" class="st3" width="29.3" height="1.4"/>
	<rect id="ae6c1c25-1aef-4af7-84b7-a99cb79f7c28" x="55.6" y="118.9" class="st1" width="23.9" height="1.4"/>
	<rect id="ad31106a-9486-4fc6-9d92-2d07f7dcec19" x="55.3" y="123.3" class="st1" width="14" height="1.4"/>
	<rect id="e133e237-d12d-4331-8259-b0f1b7869d24" x="55.3" y="127.6" class="st3" width="21.1" height="1.4"/>
	<rect id="a9ae706b-b3a6-4b62-8ac7-3a7f4cd0039d" x="55.3" y="131.9" class="st1" width="19" height="1.4"/>
	<rect id="bd082349-b2f2-4b60-be0c-57e16efac88b" x="55.3" y="136" class="st3" width="29.3" height="1.4"/>
	<rect id="ac0416d6-b57f-4bc7-9ff0-bb8dbe215cb0" x="55.6" y="140" class="st1" width="23.9" height="1.4"/>
	<rect id="b9702d28-4113-492b-a4b0-dbfc92fa702e" x="55.3" y="144.4" class="st1" width="14" height="1.4"/>
	<rect id="b41357bb-831a-49ca-b340-115c840dd657" x="55.3" y="148.7" class="st1" width="21.1" height="1.4"/>
</g>
</svg>
