<?xml version="1.0" encoding="utf-8"?>
<!-- Generator: Adobe Illustrator 21.0.0, SVG Export Plug-In . SVG Version: 6.00 Build 0)  -->
<svg version="1.1" id="a97b75e6-1429-4e16-873c-5658d47e4ef0"
	 xmlns="http://www.w3.org/2000/svg" xmlns:xlink="http://www.w3.org/1999/xlink" x="0px" y="0px" viewBox="0 0 266 182"
	 style="enable-background:new 0 0 266 182;" xml:space="preserve">
<style type="text/css">
	.st0{fill:#E6E6E6;}
	.st1{fill:#FFDFA1;}
	.st2{fill:#FFB8B8;}
	.st3{fill:#2F4899;}
	.st4{fill:#CCCCCC;}
	.st5{fill:#FFFFFF;}
</style>
<path id="b4c13b4e-8ef9-4732-a242-1b77a57c7078" class="st0" d="M231.9,147H116.6c-0.7,0-1.3-0.6-1.3-1.3V38.5
	c0-0.7,0.6-1.3,1.3-1.3h115.4c0.7,0,1.3,0.6,1.3,1.3v107.1C233.3,146.4,232.7,147,231.9,147L231.9,147z M116.6,37.7
	c-0.5,0-0.8,0.4-0.8,0.8v107.1c0,0.5,0.4,0.8,0.8,0.8h115.4c0.5,0,0.8-0.4,0.8-0.8V38.5c0-0.5-0.4-0.8-0.8-0.8H116.6z"/>
<path id="b86923e0-dd17-408d-8c65-7675907766e6" class="st0" d="M171.1,65c-0.5,0-0.9,0.4-0.9,0.9c0,0.5,0.4,0.9,0.9,0.9h50
	c0.5,0,0.9-0.4,0.9-0.9c0-0.5-0.4-0.9-0.9-0.9H171.1z"/>
<path id="b7c93af7-a9b3-4ec5-8b9c-228075bea008" class="st0" d="M171.1,70.5c-0.5,0-0.9,0.4-0.9,0.9c0,0.5,0.4,0.9,0.9,0.9h25.5
	c0.5,0,0.9-0.4,0.9-0.9c0-0.5-0.4-0.9-0.9-0.9H171.1z"/>
<path id="bf6f3c94-5d99-4a3b-bad8-b2235a5a7f19" class="st0" d="M127.4,96.9c-0.5,0-0.9,0.4-0.9,0.9s0.4,0.9,0.9,0.9h93.7
	c0.5,0,0.9-0.4,0.9-0.9s-0.4-0.9-0.9-0.9H127.4z"/>
<path id="b0a6cee6-456b-42c7-b828-32d4ce813421" class="st0" d="M127.4,102.4c-0.5,0-0.9,0.4-0.9,0.9s0.4,0.9,0.9,0.9h69.2
	c0.5,0,0.9-0.4,0.9-0.9s-0.4-0.9-0.9-0.9H127.4z"/>
<path id="b1178f6f-c479-4db7-b1bf-97b40cae8cd0" class="st0" d="M127.4,107.7c-0.5,0-0.9,0.4-0.9,0.9s0.4,0.9,0.9,0.9h93.7
	c0.5,0,0.9-0.4,0.9-0.9s-0.4-0.9-0.9-0.9H127.4z"/>
<path id="ad9199b6-e18d-416a-bbd3-7817c0554bff" class="st0" d="M127.4,113.2c-0.5,0-0.9,0.4-0.9,0.9s0.4,0.9,0.9,0.9h69.2
	c0.5,0,0.9-0.4,0.9-0.9s-0.4-0.9-0.9-0.9H127.4z"/>
<path id="f7d611df-d029-4cc6-9561-be5a6829cf65" class="st1" d="M158.5,84.2H86c-0.7,0-1.3-0.6-1.3-1.3V51.1c0-0.7,0.6-1.3,1.3-1.3
	h72.4c0.7,0,1.3,0.6,1.3,1.3v31.8C159.8,83.6,159.2,84.2,158.5,84.2z"/>
<path id="b2be1aaf-9241-4aa1-a473-dbb8e8dcff3c" class="st1" d="M220.5,134.5h-27.5c-0.7,0-1.3-0.6-1.3-1.3v-4.4
	c0-0.7,0.6-1.3,1.3-1.3h27.5c0.7,0,1.3,0.6,1.3,1.3v4.4C221.8,133.9,221.2,134.5,220.5,134.5z"/>
<path class="st2" d="M57.8,91c-1.2-0.9-1.5-2.5-0.8-3.7c0.1-0.1,0.2-0.2,0.3-0.3l0.1-23.5l3.5,0.7L61,87.2c0.8,0.9,1,2.3,0.3,3.2
	C60.6,91.7,59,91.9,57.8,91z"/>
<polygon class="st2" points="76,143.5 79.6,143.5 81.3,129.7 76,129.7 "/>
<path class="st3" d="M75.1,142.4h7.1l0,0c2.5,0,4.5,2,4.5,4.5v0.2H75.1V142.4z"/>
<polygon class="st2" points="42.5,143.5 46.1,143.5 47.8,129.7 42.5,129.7 "/>
<path class="st3" d="M41.6,142.4h7.1l0,0c2.5,0,4.5,2,4.5,4.5v0.2H41.6V142.4z"/>
<path class="st3" d="M75.8,139.7l-0.3-1.8c-0.3-0.1-0.6-0.3-0.8-0.6c-0.3-0.5-0.4-1.2-0.2-2.1l-2.4-20.5l-12.6-13.2l-8.1,19.6
	l-3.2,15.5v2.2l-6.4,0.8l0.3-2.1c-0.3-0.1-0.5-0.3-0.6-0.5c-0.4-0.6-0.4-1.6,0-2.8l0-0.1l0-0.2c0-0.1,0.1-12.8,3.8-19.1l3.8-19.1
	c-0.1-0.3-0.6-1.8,0.3-4.5c0.9-2.6,3.3-6.8,10-12l0,0h0c0.1,0,7.5-1.5,11.3,3.5l0,0v0.1c0,0.3,0,7.5-0.6,9.1l9.1,16.7
	c0.2,0.2,1.8,2,1.2,6.8l1.5,16.4c0.2,0.3,1.7,3.3,0,4.5l0.3,2.1L75.8,139.7z"/>
<path class="st1" d="M60.6,70.8c-1.7,0-4-0.6-5.4-3.4l0-0.1l3.4-7.2c0.9-2,3.3-2.8,5.3-1.9c1.9,0.9,2.8,3.2,2,5.1L63,70.4l-0.1,0
	C62.2,70.6,61.4,70.8,60.6,70.8z"/>
<path class="st1" d="M70.1,85.1L59.3,80l1.5-18l2.7-3.3l0.5-0.1c2.4-0.5,4.9-0.4,7.2,0.4l0.1,0l4.4,9.4c0,0.1,3.2,5.7-1.2,8.6
	L70.1,85.1z"/>
<path class="st2" d="M84.8,79.4c-0.1,0.1-0.3,0.1-0.4,0.2l-11.3-5.2l-0.3-3l-4.6-0.2v5.4c0,0.9,0.6,1.7,1.5,1.9l13.6,4
	c0.4,1.4,1.8,2.2,3.2,1.9c1.4-0.4,2.2-1.8,1.9-3.2c-0.4-1.4-1.8-2.2-3.2-1.9C85,79.3,84.9,79.3,84.8,79.4L84.8,79.4z"/>
<path class="st1" d="M71,72.6c-1.3,0-2.7-0.5-4.1-1.8l-0.1-0.1l1-7.9c0.3-2.2,2.2-3.7,4.4-3.5c2.1,0.3,3.6,2.1,3.5,4.2l-0.6,7.6
	l-0.1,0C75,71.3,73.3,72.6,71,72.6z"/>
<ellipse transform="matrix(0.4797 -0.8774 0.8774 0.4797 -7.528 85.2433)" class="st2" cx="68.1" cy="49" rx="7.2" ry="7.2"/>
<path class="st3" d="M75.5,45.1c-0.4-2.1-2-3.8-4-4.5c-2-0.7-4.2-0.5-6.2,0.3c-0.3,0.1-0.7,0.3-1,0.5c-0.7-1.4-2.5-2.1-4-2.1
	c-1.9,0.1-3.7,1.1-5.4,2.1c-1.7,1-3.5,1.9-5.4,1.9C46,43.3,43.4,40,40,39c-4-1.1-8.2,1.2-9.3,5.2c-0.6,2.2-0.3,4.5,1,6.4
	c1.4-2.6,4.8-3.4,7.7-3.1c2.9,0.4,5.6,1.6,8.5,2.3c2.9,0.7,6.2,0.7,8.4-1.3c1.3-1.1,2-2.7,3.1-3.9c0.7-0.9,1.8-1.6,2.9-1.7
	c-1.1,1-1.9,2.2-2.4,3.5c-0.9,2.5-0.4,5.4,1.4,7.3c1.9,2,4.9,2.6,7.7,2.5l0.1-0.1c-0.9-1.3-1.5-3-0.6-4.3c0.9-1.2,2.8-1,4.2-1.6
	C74.7,49.5,75.8,47.2,75.5,45.1z"/>
<path class="st4" d="M94.9,147.3H26.3c-0.2,0-0.3-0.1-0.3-0.3s0.1-0.3,0.3-0.3h68.6c0.2,0,0.3,0.1,0.3,0.3S95.1,147.3,94.9,147.3z"
	/>
<path id="e2582065-92bf-48dc-a28d-04f42179e35f" class="st5" d="M119,60.9c-0.3,0-0.6,0.4-0.6,0.9c0,0.5,0.3,0.9,0.6,0.9h26.9
	c0.3,0,0.6-0.4,0.6-0.9c0-0.5-0.3-0.9-0.6-0.9H119z"/>
<path id="bb678cb9-7d76-4fbb-a84c-c380d6521528" class="st5" d="M119,66.2c-0.3,0-0.6,0.4-0.6,0.9s0.3,0.9,0.6,0.9h26.9
	c0.3,0,0.6-0.4,0.6-0.9s-0.3-0.9-0.6-0.9H119z"/>
<path id="a9697f3a-b5f3-4f74-8277-57e15506e4dd" class="st5" d="M119,71.4c-0.3,0-0.6,0.4-0.6,0.9s0.3,0.9,0.6,0.9h11.6
	c0.3,0,0.6-0.4,0.6-0.9s-0.3-0.9-0.6-0.9H119z"/>
<circle class="st5" cx="105.4" cy="67" r="7.3"/>
</svg>
