<?xml version="1.0" encoding="utf-8"?>
<!-- Generator: Adobe Illustrator 21.0.0, SVG Export Plug-In . SVG Version: 6.00 Build 0)  -->
<svg version="1.1" id="Capa_1" xmlns="http://www.w3.org/2000/svg" xmlns:xlink="http://www.w3.org/1999/xlink" x="0px" y="0px"
	 viewBox="0 0 1928 1606" style="enable-background:new 0 0 1928 1606;" xml:space="preserve">
<style type="text/css">
	.st0{fill:#92F3F9;}
	.st1{fill:#A2ACFF;}
	.st2{fill:#F9BB9D;}
	.st3{fill:#F9EEBD;}
</style>
<circle class="st0" cx="542" cy="256" r="52"/>
<circle class="st1" cx="406" cy="526.4" r="32.4"/>
<circle class="st2" cx="661.4" cy="687.2" r="39.1"/>
<circle class="st3" cx="1124" cy="393.5" r="68.6"/>
<circle class="st1" cx="1017" cy="65.6" r="28.7"/>
<circle class="st2" cx="209.6" cy="36" r="32.4"/>
<circle class="st2" cx="1580" cy="214" r="28"/>
<circle class="st3" cx="1020" cy="689.5" r="27.9"/>
<circle class="st3" cx="716" cy="12" r="17.4"/>
<circle class="st2" cx="1500" cy="530" r="40.9"/>
<circle class="st0" cx="542" cy="1102" r="52"/>
<circle class="st1" cx="406" cy="1372.4" r="32.4"/>
<circle class="st2" cx="661.4" cy="1533.2" r="39.1"/>
<circle class="st3" cx="1124" cy="1239.5" r="68.6"/>
<circle class="st1" cx="1017" cy="911.6" r="28.7"/>
<circle class="st3" cx="209.6" cy="882" r="73.4"/>
<circle class="st2" cx="1580" cy="1060" r="28"/>
<circle class="st3" cx="1020" cy="1535.5" r="27.9"/>
<circle class="st3" cx="716" cy="858" r="17.4"/>
<circle class="st2" cx="1500" cy="1376" r="40.9"/>
<circle class="st0" cx="2022" cy="256" r="52"/>
<circle class="st1" cx="1886" cy="526.4" r="32.4"/>
<circle class="st2" cx="2141.4" cy="687.2" r="39.1"/>
<circle class="st3" cx="2604" cy="393.5" r="68.6"/>
<circle class="st1" cx="2497" cy="65.6" r="28.7"/>
<circle class="st2" cx="1689.6" cy="36" r="32.4"/>
<circle class="st2" cx="3060" cy="214" r="28"/>
<circle class="st3" cx="2500" cy="689.5" r="27.9"/>
<circle class="st3" cx="2196" cy="12" r="17.4"/>
<circle class="st2" cx="2980" cy="530" r="40.9"/>
<circle class="st0" cx="2022" cy="1102" r="52"/>
<circle class="st1" cx="1886" cy="1372.4" r="32.4"/>
<circle class="st2" cx="2141.4" cy="1533.2" r="39.1"/>
<circle class="st3" cx="2604" cy="1239.5" r="68.6"/>
<circle class="st1" cx="2497" cy="911.6" r="28.7"/>
<circle class="st3" cx="1689.6" cy="882" r="73.4"/>
<circle class="st2" cx="3060" cy="1060" r="28"/>
<circle class="st3" cx="2500" cy="1535.5" r="27.9"/>
<circle class="st3" cx="2196" cy="858" r="17.4"/>
<circle class="st2" cx="2980" cy="1376" r="40.9"/>
</svg>
