<?xml version="1.0" encoding="utf-8"?>
<!-- Generator: Adobe Illustrator 21.0.0, SVG Export Plug-In . SVG Version: 6.00 Build 0)  -->
<svg version="1.1" xmlns="http://www.w3.org/2000/svg" xmlns:xlink="http://www.w3.org/1999/xlink" x="0px" y="0px"
	 viewBox="0 0 223 195" style="enable-background:new 0 0 223 195;" xml:space="preserve">
<style type="text/css">
	.st0{display:none;}
	.st1{display:inline;}
	.st2{fill:#FAEFE9;}
	.st3{fill:#FFFFFF;}
	.st4{fill:none;stroke:#000000;stroke-miterlimit:10;}
	.st5{fill:#F2F2F2;}
	.st6{opacity:0.7;fill:#50B89D;enable-background:new    ;}
	.st7{font-family:'ArialMT';}
	.st8{font-size:9.2666px;}
	.st9{opacity:0.44;fill:#50B89D;enable-background:new    ;}
	.st10{fill:#AB8DE5;}
	.st11{fill:#73E5E2;}
	.st12{fill:#50B89D;}
	.st13{fill:#F98B67;}
	.st14{fill:#1F161E;}
	.st15{fill:#FBDC8E;}
	.st16{fill:none;stroke:#FFFFFF;stroke-width:0.4;stroke-linecap:round;stroke-linejoin:round;}
	.st17{fill:#B37361;}
	.st18{fill:#F8CDBA;}
	.st19{fill:#FA9E9F;}
	.st20{fill:none;stroke:#1F161E;stroke-linecap:round;stroke-miterlimit:10;}
	.st21{fill:#969696;}
	.st22{display:inline;fill:#FAEFE9;}
	.st23{display:inline;fill:#FFFFFF;}
	.st24{fill:none;stroke:#969696;stroke-width:2;stroke-miterlimit:10;}
	.st25{fill:#D8D8D8;}
	.st26{fill:#55B79D;}
	.st27{fill:none;stroke:#1F161E;stroke-width:0.69;stroke-linecap:round;stroke-miterlimit:10;}
	.st28{fill:none;stroke:#1F161E;stroke-width:0.55;stroke-linecap:round;stroke-miterlimit:10;}
	.st29{fill:#8E554A;}
	.st30{fill:#B27363;}
	.st31{fill:#78E5E1;}
	.st32{fill:#E2E2E2;}
	.st33{fill:#EFEFEF;}
	.st34{fill:#99574A;}
</style>
<g id="Capa_1" class="st0">
	<title>example-scene-1</title>
	<g id="Layer_2" class="st1">
		<g id="Background">
			<circle class="st2" cx="110.5" cy="98.5" r="81.3"/>
		</g>
		<g id="Middle_ground">
			<rect x="105.8" y="63" class="st3" width="49.9" height="77.2"/>
			<line class="st4" x1="95.8" y1="110.2" x2="146.9" y2="110.2"/>
			<line class="st4" x1="95.8" y1="115.2" x2="146.9" y2="115.2"/>
			<line class="st4" x1="95.8" y1="120.3" x2="146.9" y2="120.3"/>
			<line class="st4" x1="95.8" y1="125.3" x2="146.9" y2="125.3"/>
			<circle class="st5" cx="130.7" cy="85.6" r="13"/>
			<rect x="146.9" y="90.5" class="st6" width="20.6" height="19.1"/>
			<text transform="matrix(0.6 0 0 1 152.209 103.1104)" class="st3 st7 st8">&lt; / &gt;</text>
			<rect x="19.6" y="25.1" class="st4" width="111.3" height="73.2"/>
			<line class="st4" x1="19.6" y1="29" x2="130.9" y2="29"/>
			<rect x="27.7" y="35.5" class="st4" width="33.5" height="33.5"/>
			<line class="st4" x1="67.6" y1="38.4" x2="118.7" y2="38.4"/>
			<line class="st4" x1="67.6" y1="43.5" x2="118.7" y2="43.5"/>
			<line class="st4" x1="67.6" y1="48.5" x2="118.7" y2="48.5"/>
			<line class="st4" x1="67.6" y1="53.6" x2="118.7" y2="53.6"/>
			<polygon class="st9" points="44.5,44.3 35.3,60.1 53.6,60.1 			"/>
			<circle class="st10" cx="22" cy="27.1" r="0.9"/>
			<circle class="st11" cx="25.3" cy="27.1" r="0.9"/>
			<circle class="st12" cx="28.6" cy="27.1" r="0.9"/>
			<polygon class="st10" points="68.6,84.8 71.8,82 68.6,82 			"/>
			<path class="st10" d="M69.8,71.6h15.7c2.4,0,4.4,1.9,4.4,4.4v2c0,2.4-1.9,4.4-4.4,4.4H69.8c-2.4,0-4.4-1.9-4.4-4.4v-2
				C65.5,73.5,67.4,71.6,69.8,71.6z"/>
			<circle class="st3" cx="74.4" cy="76.9" r="0.9"/>
			<circle class="st3" cx="77.7" cy="76.9" r="0.9"/>
			<circle class="st3" cx="81" cy="76.9" r="0.9"/>
			<polygon class="st11" points="168.6,53.2 165.4,50.4 168.7,50.4 			"/>
			<path class="st11" d="M167.4,50.7h-15.7c-2.4,0-4.4-1.9-4.4-4.4v-2c0-2.4,1.9-4.4,4.4-4.4h15.7c2.4,0,4.4,1.9,4.4,4.4v2
				C171.8,48.8,169.8,50.7,167.4,50.7z"/>
			<circle class="st3" cx="162.8" cy="45.4" r="0.9"/>
			<circle class="st3" cx="159.5" cy="45.4" r="0.9"/>
			<circle class="st3" cx="156.3" cy="45.4" r="0.9"/>
			<circle class="st13" cx="166.9" cy="26.1" r="0.9"/>
			<circle class="st13" cx="168.9" cy="30" r="0.9"/>
			<circle class="st13" cx="147.1" cy="68.4" r="1.5"/>
			<circle class="st13" cx="155.8" cy="73.5" r="1.5"/>
			<circle class="st13" cx="23.2" cy="75.1" r="1.5"/>
			<path class="st14" d="M150.5,142.4v-0.2l-0.5-0.6l-1.2-1.4l-1.2-1.5c0,0-1.2-0.8-1.5-1c-1.1-0.5-2.2-0.9-3.5-0.9
				c-0.8,0-3.8,0.1-3.8,0.6c0,0.8,4.2,3.6,7.3,5C147.5,142.4,150.5,142.4,150.5,142.4z"/>
			<path class="st15" d="M149.9,142.4c-4.3-3.3-13.1-21.4-10.9-28.1c4.8,2.5,10.1,10.9,12.6,18c0.1,0.5,0.2,0.9,0.3,1.4l1,4.6
				l0.2,4.1H149.9z"/>
			<path class="st11" d="M152.8,142.4c-1.5-1.2-1.9-4.7-1.9-6c0-2.4,0.4-4.2,2.4-6.9c2.1-2.7,1.5-7.1,4.3-10.1s4.6-3.8,7.9-3.8
				s4.3,5.3,4.3,6.7c0,5.4-3.4,6.2-5.5,8.8c-1.5,1.9-1.6,3.4-2.1,4.3c-2.4,4.7-4.4,6.5-5.9,7.2"/>
			<path class="st16" d="M153.7,142c0-9.2,9.8-23.1,11.8-25.2"/>
			<path class="st16" d="M154.2,137.8c-1.1-1.2-2.1-4.5-1.9-5.4"/>
			<path class="st16" d="M151.4,141.6c-1.5-2.7-8.8-15.9-11.4-25.6"/>
			<path class="st17" d="M156.3,142.4h4.5l-3.8,14.1h-10l-3.7-14.1H156.3"/>
			<path class="st16" d="M140.2,137.7c2.2,0.2,5,0.3,6.9,1.6"/>
		</g>
		<g id="Man">
			<path class="st14" d="M175.2,84.7c-0.5,2.5-4.4,34-3.1,41.6c1.3,7.5,21.9,23.3,22.8,23.6c1.1-0.8,2.6-3.3,2.6-3.3
				s-15.1-17.5-15.4-18.2c-0.3-0.7,3.3-41.3,3.3-41.3L175.2,84.7z"/>
			<polygon class="st10" points="199.8,90.5 184.4,153.4 179.2,153.4 184.5,87.7 			"/>
			<path class="st15" d="M188.9,54.4c2.1,0,13.2,0.4,15.2,4.3s0.1,22-1.1,22.7c-0.7,0.4-0.9,0-1.1,0.8c-0.2,0.8-2.1,8.3-2.1,8.3
				c-1.2,0-18.9-2.6-24.6-5.7c0-0.9,0.3-3.1,0.3-3.3c-0.8,0.3-1.7,0.4-1.9,0c-2.2-3.4,1.1-21.1,3.5-24.6
				C178.1,55.3,185.5,54.4,188.9,54.4z"/>
			<path class="st14" d="M196.2,81.9c0.5,0,5,3.2,4.6,4.7c0.3-1.2,1.3-5.1,1.3-5.1C201.7,81.6,196.6,81.9,196.2,81.9z"/>
			<path class="st18" d="M191.6,56.5c0,0.7-5.4,0.7-5.4,0v-6.9h5.4V56.5z"/>
			<path class="st14" d="M188.5,51.2c0.4,0,3.1,1.2,3.1,1.8v-3.5C191,49.5,188.5,51.2,188.5,51.2z"/>
			<circle class="st18" cx="187.8" cy="46.4" r="5.3"/>
			<path class="st14" d="M186,38.7c-2.7,0-4.4,1.7-4.4,3.9c0,1.8,0.4,2.8,1,3.1c0.3-1.8,1-2.6,1.6-2.9c0.5,0.3,1.2,1.2,2.3,1.5
				c1,0.3,3.8,0.2,6,1.8c0.7-0.7,1.4-1.5,1.4-2.5s-0.4-2.3-3-3C189.1,40.1,188.9,38.7,186,38.7z"/>
			<ellipse class="st19" cx="182.9" cy="47.5" rx="0.9" ry="0.5"/>
			<ellipse class="st19" cx="188.7" cy="47.5" rx="0.9" ry="0.5"/>
			<path class="st20" d="M185.1,46.5c-0.2,0.2-1.1,1.3-0.1,1.7"/>
			<path class="st20" d="M186.9,49.4c0.3,0,0.7-0.3,0.9-0.7"/>
			<circle class="st18" cx="192.6" cy="47" r="1.2"/>
			<path class="st20" d="M196.3,64.8c-0.1,1.2-0.5,6.9-0.3,7.7c-1.8,0.6-17.9,8.3-20.7,9.1"/>
			<path class="st20" d="M177.5,63c-0.4,1.3-1.6,7.2-0.7,9.9"/>
			<path class="st20" d="M181.7,78.9c0.8,0.6,8.9,4.2,20.1,2.8"/>
			<path class="st18" d="M180.9,72.9c0.5,0.1-1.2-1.3-2.2-0.8s-2.3,2.9-2.1,3.4c0.1,0.4,0.5,0.6,0.9,0.4c0,0,0.1,0,0.1-0.1
				C177.9,75.7,180,72.8,180.9,72.9z"/>
			<path class="st14" d="M197.3,146.8c0.3,0.2,2.8,1.9,2.9,3c0,1.1-2.4,4.7-2.9,4.8s-0.8-0.3-0.8-1s0.9-2,0.8-2.6s-1.3-1.6-1.9-1.6"
				/>
			<path class="st14" d="M183.9,153.4c0,0.5,0.3,3.6-0.3,3.9c-0.6,0.3-7,0.5-7.3,0.2s-0.5-0.9-0.2-1.1c0.3-0.2,2.7-0.7,3.1-0.9
				s0.8-1.5,0.6-2.1"/>
		</g>
		<g id="Woman">
			<rect x="17.5" y="130" class="st17" width="40.7" height="20.6"/>
			<path class="st14" d="M78.3,120.4c0.2,1.1,3.2,25.1,3.7,25.5s5.6,1.3,6.1,0.6c0.1-1.1,0.2-17.8,0.5-19.3"/>
			<path class="st12" d="M20.2,115.3c-2.1-1,2.3,19.3,13.7,19.3s30.6-17.4,33.8-17.4c6.9,0,23.1,13.5,24.4,13.5c1-1,2.9-2.7,2.9-3.4
				S79.4,101,67.8,101C63.2,101.1,24.9,117.7,20.2,115.3z"/>
			<path class="st14" d="M26.6,115.7c2.3-0.5,5.1-1.9,7.6-3.2c-6.8,2.2-12.4,3.7-14.1,2.9c-1.1-0.5-0.4,4.9,2.2,10.1
				C21.9,124.5,21.2,116.9,26.6,115.7z"/>
			<path class="st11" d="M31.7,80c1.8,0,11.2-0.2,13.7,2.2c1.9,1.8,7.8,17.4,8.7,22.9c-4,2-32.7,15.8-41.5,9.7
				c-0.2-4.7,0.7-23.3,6.5-33.1C21.2,80.3,29.9,80,31.7,80z"/>
			<path class="st18" d="M35.3,75.6h-5.5v5.9c0,1.5,5.5,1.5,5.5,0V75.6z"/>
			<path class="st14" d="M29.8,79.1c0-0.7,1.8-2.3,2.9-2.2c0-0.7-2.6-1.8-2.6-1.8l-0.4,1L29.8,79.1z"/>
			<path class="st14" d="M41,75.6c0.1-0.6,0.2-1.1,0.2-1.7c0-4.3-3.4-7.9-7.6-7.9S26,69.5,26,73.9c0,0.6,0.1,1.2,0.2,1.7H41z"/>
			<path class="st18" d="M39,70.3c-0.9-0.1-1.9-0.9-2.5-1.3c-3.7,2.7-6,2.7-6.3,2.7s-1.3,1.5-1.8,1.7l0,0c0.6,3.1,3.6,5.2,6.7,4.6
				c3.1-0.6,5.2-3.6,4.6-6.7c-0.1-0.3-0.1-0.7-0.3-1C39.3,70.3,39.2,70.3,39,70.3z"/>
			<circle class="st14" cx="29.5" cy="64.7" r="2.2"/>
			<path class="st20" d="M30.5,71.6c-0.5,0-0.9,0.5-0.9,1s0.4,0.9,0.9,0.9"/>
			<path class="st20" d="M37.7,71.7c0.3,0.4,1,1,0,1.7"/>
			<path class="st20" d="M34.7,73.9c0,0.3,0.1,0.9,0.7,1.1"/>
			<ellipse class="st19" cx="32.9" cy="73.5" rx="0.9" ry="0.5"/>
			<ellipse class="st19" cx="39.3" cy="73.5" rx="0.9" ry="0.5"/>
			<path class="st18" d="M45.2,96.3l5.8-1.5c0.6,1,3.3,10.3,3.3,10.3l-9,3.8C45.4,107.2,45.8,99,45.2,96.3z"/>
			<path class="st20" d="M24.7,94.8c0,0.7-0.6,3.4-0.9,4.7"/>
			<path class="st20" d="M45.2,96.3c-0.1-1.1-1-7.4-2.4-10.7"/>
			<path class="st18" d="M45.2,96.3l5.8-1.5c0.6,1,3.3,10.3,3.3,10.3l-9,3.8C45.4,107.2,45.8,99,45.2,96.3z"/>
			<path class="st14" d="M92.2,130.2c0.1,0.2,1.9,2.3,2.5,2.4c0.6,0,4.4-2.5,4.2-3.1c-0.2-0.5-2.5-0.2-2.9-0.4s-1.3-1.1-1.5-1.5"/>
			<path class="st14" d="M83,146.1c0,0.2-0.3,3,0.1,3.4s4.9,1.2,5.1,0.7c0.3-0.5-1.7-1.9-1.8-2.3s-0.2-1.7,0-2.1"/>
			<polygon class="st21" points="76,105.7 56.2,105.7 60.9,93.2 80.7,93.2 			"/>
			<rect x="39.7" y="105.3" class="st21" width="19.8" height="0.5"/>
			<path class="st18" d="M23.7,99.5c-0.4,1.4-2.2,7.5-1.5,8.6c0.8,1.1,19.6-1.3,24.7-2.9c1.3-0.4,2.2-1.5,2.8-1.7
				c1.5-0.3,3,0.7,3.4,2.2c-2,1-31.1,15.8-40.6,9.2c-1.8-1.3,1.3-16.8,1.5-17.6C15.7,97.4,23.7,99.5,23.7,99.5z"/>
			<path class="st20" d="M45.5,105.5c0.6-0.1,1.1-0.3,1.5-0.4c1.3-0.4,2.2-1.5,2.8-1.7c1.5-0.3,3,0.7,3.4,2.2"/>
		</g>
	</g>
</g>
<g id="Capa_2" class="st0">
	<circle class="st22" cx="109.6" cy="69.7" r="51.8"/>
	<path class="st23" d="M49.7,46.2c0-1.9,4.9-2.4,6.8-2.4c3.9,0,4.1-2.2,7.4-2.2c2.8,0,4.3,2.3,6.9,2.3c5.7,0,7-6.5,12.5-6.5
		c5.6,0,5.3,6.8,10.6,6.8c2.6,0,18.6,0.5,18.6,2H49.7z"/>
	<path class="st23" d="M126.9,54.5c0-1.3,4.2-3.2,6.5-3.2c4.5,0,3.1,1.6,6,1.6c3.2,0,4-7,8.9-7c5.4,0,4.5,6.9,7.9,6.9
		c1.4,0,2.1-0.6,4.2-0.6c1.2,0,2.5,1.2,2.5,2.4L126.9,54.5z"/>
	<g id="Layer_2_4_" class="st1">
		<g id="Layer_2-2_1_">
			<path class="st11" d="M36.5,130.2C26.2,140.1,64.8,176,70.5,171C76.1,166.1,46.7,120.5,36.5,130.2z"/>
			<path class="st15" d="M70.5,171.5c-0.2,0-0.4-0.1-0.5-0.3c-5.2-10.4-25.2-32.1-29.4-35.7c-0.2-0.2-0.2-0.5-0.1-0.7
				c0.2-0.2,0.5-0.2,0.7-0.1c4.3,3.7,24.4,25.5,29.7,36c0.1,0.3,0,0.6-0.2,0.7C70.6,171.5,70.5,171.5,70.5,171.5z"/>
			<path class="st12" d="M56.5,98.3c19.6-5.3,26.9,71.6,17,73.8C63.6,174.4,45.2,101.4,56.5,98.3z"/>
			<path class="st15" d="M73.5,172.7c-0.3,0-0.5-0.2-0.5-0.5c-1.9-23.5-10.8-56-12.5-60.9c-0.1-0.3,0-0.6,0.3-0.6
				c0.3-0.1,0.6,0,0.6,0.3c1.7,4.9,10.6,37.5,12.5,61.1C74,172.4,73.8,172.7,73.5,172.7C73.5,172.7,73.5,172.7,73.5,172.7z"/>
		</g>
	</g>
	<g id="Layer_2_3_" class="st1">
		<g id="Layer_2-2_2_">
			<path class="st11" d="M77.1,171c5.6,4.9,44.3-30.9,33.9-40.9C100.9,120.5,71.5,166.1,77.1,171z"/>
			<path class="st15" d="M77.1,171.5c0.2,0,0.4-0.1,0.5-0.3c5.2-10.4,25.2-32.1,29.4-35.7c0.2-0.2,0.2-0.5,0.1-0.7
				c-0.2-0.2-0.5-0.2-0.7-0.1c-4.3,3.7-24.4,25.5-29.7,36c-0.1,0.3,0,0.6,0.2,0.7C77,171.5,77.1,171.5,77.1,171.5z"/>
			<path class="st12" d="M74.1,172.2c-9.9-2.2-2.7-79.2,17-73.8C102.3,101.4,84,174.4,74.1,172.2z"/>
			<path class="st15" d="M74.1,172.7c0.3,0,0.5-0.2,0.5-0.5c1.9-23.5,10.8-56,12.5-60.9c0.1-0.3,0-0.6-0.3-0.6
				c-0.3-0.1-0.6,0-0.6,0.3c-1.7,4.9-10.6,37.5-12.5,61.1C73.6,172.4,73.8,172.7,74.1,172.7C74.1,172.7,74.1,172.7,74.1,172.7z"/>
		</g>
	</g>
	<g id="Layer_2_2_" class="st1">
		<g id="Vector">
			<circle class="st24" cx="135.3" cy="128.7" r="2.8"/>
			<path class="st25" d="M132.2,129.7l6.3-2c2-0.6,4.1,0.5,4.6,2.4l4.3,13.4c0.6,2-0.5,4.1-2.4,4.6l-6.3,2c-2,0.6-4.1-0.5-4.6-2.4
				l-4.3-13.4C129.1,132.4,130.2,130.3,132.2,129.7z"/>
			<path class="st18" d="M98.6,93.4c-0.3,0.2-1.7,1.3-2.3,1.4c-0.5,0-11.1-5.9-12.8-7.5s-4.5-4.8-5-4.8c-0.5,0-0.7,0.6-0.7,1
				c0,3.4,16.6,18.9,20.1,18.9c1,0,4.1-1.7,4.4-2.3C102.7,99.5,98.6,93.4,98.6,93.4z"/>
			<path class="st14" d="M102,174.3c-0.1,0.5-0.6,3-1,3.4c-0.8,0.6-6.2-0.9-6.4-1.3s-0.2-0.9,0-0.9c0.2-0.1,2.6,0,2.9-0.2
				c0.3-0.1,0.9-1.2,0.9-1.7"/>
			<path class="st14" d="M135.9,170.7c0.2,0.3,1.6,2.7,1.5,3.3c-0.2,1-5.2,3.4-5.6,3.3c-0.3-0.1-0.8-0.5-0.6-0.7
				c0.1-0.2,1.9-1.7,2-2.1c0.1-0.3,0-1.5-0.5-2"/>
			<path class="st14" d="M122.5,108.8c1.6,2,3.4,22.8,3,32.3c0.8,1.3,10.3,28.7,10.3,29.6s-2.4,2.2-3.1,2
				c-0.7-0.2-20.1-32.2-20.4-34.1C112,136.7,122.5,108.8,122.5,108.8z"/>
			<path class="st26" d="M109.8,106.4c-0.3,0.9-12.2,66.2-12.2,67c0.5,1.2,4.3,1.7,5.2,1.2c0.9-0.6,9.1-29.7,9.8-30.9
				c0.6-1.2,16.1-24.7,9.9-36.2C121.5,105.9,109.8,106.4,109.8,106.4z"/>
			<path class="st11" d="M129.4,99.4c0-1.4-7.8-19.5-12.3-19.5c-0.6-2.3-2.9-2.2-3.7-2.2c-4.3,0-6.2,3.6-6.7,8.5
				c-2.1,1.6-8.6,6.4-8.7,7.3c-0.1,1,2.1,6.7,4.4,7.5c1.3,0.5,3.5-3.4,4.6-4.1c0.8,5.8,2.2,10.8,2.9,11.1c3.3,1.6,12.5,0.6,12.8,0.2
				s-0.3-2.9-0.3-3.9C122.9,103,129.4,100.8,129.4,99.4z"/>
			<path class="st14" d="M105.6,69.2c-0.3,0-1.7-1.7-1-5.5c0.9-1.2,3.7-1.5,3.8-0.2S106.9,69.2,105.6,69.2z"/>
			<path class="st18" d="M111.6,79.4c0.1,0.7,4.2,0.2,4.1-0.6L115,74l-4.1,0.6L111.6,79.4z"/>
			<path d="M115.4,76.9c-0.1-0.5-1.3-1.9-2.1-1.5c0.9-0.5,1.3-1.7,1.6-1.5L115.4,76.9z"/>
			<circle class="st18" cx="110.7" cy="70.8" r="5.3"/>
			
				<ellipse transform="matrix(0.9907 -0.1361 0.1361 0.9907 -8.8673 15.0115)" class="st19" cx="105.4" cy="72.4" rx="0.9" ry="0.5"/>
			
				<ellipse transform="matrix(0.9907 -0.1361 0.1361 0.9907 -8.7047 15.7615)" class="st19" cx="110.9" cy="71.5" rx="0.9" ry="0.5"/>
			<path class="st27" d="M107.4,71.1c-0.1,0.2-0.8,1.4,0.1,1.6"/>
			<path class="st27" d="M109.4,73.6c0.3-0.1,0.6-0.5,0.8-0.7"/>
			<path class="st14" d="M112.5,59.3c7.1,0,12.2,1.2,15.4,1.2c5.1,0,9.2-2.3,14.9-2.3c2.6,0,9.3,2.2,9.3,9.8
				c0,4.3-2.3,12.7-12.5,12.7c-8.7,0-10.2-3.7-13.7-3.7c-3.7,0-10.6,1.7-11.7-3c-0.2-1.3-0.6-2.8-1.3-4.1c-3.8-1.4-5.1-1.3-7-2.3
				C103.4,66.3,103.3,59.3,112.5,59.3z"/>
			<circle class="st18" cx="113.9" cy="70.6" r="1.2"/>
			<path class="st28" d="M122.2,104.3c-0.2,0.2-1,1.3-1.3,1c-0.2-0.2-9.8-22.4-6.6-24.6"/>
			<path class="st28" d="M107,96.8c-0.1-0.7-0.8-8.5-0.3-10.8"/>
			<path class="st18" d="M129,99.3c0.2,0.5,3.7,19.5,4.5,21c0.7,1.5,1.5,2.4,2.1,3c1,1.5,0.1,4.2-0.5,4.3c-0.6,0.1-2.4-0.3-4.2-3.5
				c-0.5-0.8-0.1-2.9-0.6-3.5c-0.7-0.7-8.4-14.7-8.5-17S129,99.3,129,99.3z"/>
			<rect x="78.6" y="79" transform="matrix(0.907 -0.4212 0.4212 0.907 -27.3174 40.8863)" class="st14" width="0.7" height="6.6"/>
		</g>
	</g>
	<g id="Layer_2_1_" class="st1">
		<g id="Layer_2-2">
			<path class="st29" d="M142.4,102.8c10.3-3.6,19.1,10.5,21.5,14.2c10.3,16.4,1.6,30.7-3,32.4c-8,2.9-16.7-10-19.1-14.1
				c-4.2-6.9-2.9-16.6-3.4-19.5S139.6,103.8,142.4,102.8z"/>
			<path class="st30" d="M169,85.4c6.5-0.9,10.3,4.4,11.4,7.5c1.9,5,5.9,7.7,5.9,14c0,14.8-9.1,26.7-13.2,26.7
				c-9,0-12.3-9.4-12.3-13.4c0-6.7,1.8-14.8,1.6-16.9C162,99.2,159.5,86.7,169,85.4z"/>
			<path class="st31" d="M164.1,174.6c-0.2,0-0.4-0.2-0.4-0.3c-1.3-16.2-5.1-30.8-8.1-40.3c-3.6-11.3-7-18.5-8-19.8
				c-0.1-0.2-0.1-0.4,0.1-0.5c0.2-0.1,0.4-0.1,0.5,0.1c2.6,3.3,14,30.8,16.3,60.5C164.5,174.4,164.3,174.6,164.1,174.6
				C164.1,174.6,164.1,174.6,164.1,174.6z"/>
			<path class="st31" d="M151.4,121.7c-0.1,0-0.2,0-0.2-0.1c-0.2-0.1-0.2-0.4,0-0.5c1.6-1.8,3.6-7.3,3.9-8.2
				c0.1-0.2,0.3-0.3,0.5-0.3c0.2,0.1,0.3,0.3,0.3,0.5c-0.2,0.8-2.3,6.5-4,8.5C151.6,121.7,151.5,121.7,151.4,121.7z"/>
			<path class="st31" d="M155.5,132.8C155.5,132.8,155.5,132.8,155.5,132.8c-4.3,0-9.1-1-10.8-2.1c-0.2-0.1-0.2-0.4-0.1-0.5
				s0.4-0.2,0.5-0.1c1.4,0.9,5.8,2,10.4,2c0.2,0,0.4,0.2,0.4,0.4C155.8,132.6,155.7,132.8,155.5,132.8z"/>
			<path class="st31" d="M157.7,140c-0.2,0-0.3-0.1-0.4-0.2c-0.1-0.2,0-0.4,0.2-0.5c1.7-0.7,2.9-2.1,3.3-2.7l0.3,0.2l0.3,0.2
				c-0.5,0.6-1.7,2.1-3.6,2.9C157.8,140,157.7,140,157.7,140z"/>
			<path class="st31" d="M167.9,174.6C167.9,174.6,167.9,174.6,167.9,174.6c-0.2,0-0.4-0.2-0.4-0.4c0.1-2,0.6-6.7,1.2-12.6
				c1.8-16.8,4.7-45,2.8-58.1c0-0.2,0.1-0.4,0.3-0.4c0.2,0,0.4,0.1,0.4,0.3c2,13.2-1,41.4-2.8,58.3c-0.6,5.9-1.1,10.5-1.2,12.5
				C168.2,174.5,168.1,174.6,167.9,174.6z"/>
			<path class="st31" d="M172.5,109.8c-0.2,0-0.3-0.1-0.4-0.2c-0.1-0.2,0-0.4,0.2-0.5c2.1-0.8,4.9-3.3,5.6-4.3
				c0.1-0.2,0.4-0.2,0.5-0.1c0.2,0.1,0.2,0.3,0.1,0.5c-0.7,1.1-3.7,3.7-6,4.6C172.6,109.8,172.5,109.8,172.5,109.8z"/>
			<path class="st31" d="M172.3,120.5c-2.5,0-5.1-1-6.8-1.8c-0.2-0.1-0.3-0.3-0.2-0.5c0.1-0.2,0.3-0.3,0.5-0.2
				c1.6,0.7,4.1,1.7,6.4,1.7c0.2,0,0.4,0.2,0.4,0.4S172.5,120.5,172.3,120.5z"/>
		</g>
	</g>
</g>
<g id="Capa_3">
	<circle class="st2" cx="114.1" cy="92.5" r="71.8"/>
	<path class="st32" d="M170.1,177.2c0-0.7,0.1-1.4,0.1-2c0-32.6-35-59-78.2-59s-78.2,26.4-78.2,59c0,0.7,0,1.4,0.1,2H170.1z"/>
	<path class="st33" d="M214.8,177.2c0-0.5,0-1,0-1.4c0-23-26.1-41.7-58.4-41.7S98,152.8,98,175.8c0,0.5,0,1,0,1.4H214.8z"/>
	<path class="st34" d="M43.8,177.2c0.1-0.6,0.2-1.3,0.2-1.9c0-5.1-3.3-9.2-7.4-9.2s-7.4,4.1-7.4,9.2c0,0.6,0.1,1.3,0.2,1.9H43.8z"/>
	<path class="st34" d="M165.4,177.2c0.1-0.6,0.2-1.3,0.2-1.9c0-5.1-3.3-9.2-7.4-9.2s-7.4,4.1-7.4,9.2c0,0.6,0.1,1.3,0.2,1.9H165.4z"
		/>
	<polygon class="st34" points="193.6,91.9 172.2,177.2 215,177.2 	"/>
	<path class="st11" d="M141.4,119c-3.8,3.6,10.4,16.8,12.4,15C155.8,132.1,145.1,115.4,141.4,119z"/>
	<path class="st15" d="M153.8,134.1c-0.1,0-0.1,0-0.2-0.1c-1.9-3.8-9.2-11.7-10.8-13.1c-0.1-0.1-0.1-0.2,0-0.3
		c0.1-0.1,0.2-0.1,0.3,0c1.6,1.4,8.9,9.3,10.9,13.2C154,133.9,154,134,153.8,134.1C153.8,134.1,153.8,134.1,153.8,134.1z"/>
	<path class="st12" d="M72.2,123.1c5.5,2.5,6.1,11.7,5.1,13.8c-1.6,3.3-7.4,8.1-8.9,11.4c-0.7,1.4-6.3,16.2-11.6,14.4
		c-4.7-1.5-7.2-8.3-4.6-13c3.9-7,5.5-16.3,6.9-18.8C60.9,127.6,66.9,120.6,72.2,123.1z"/>
	<path class="st15" d="M54.8,177.1c-0.2,0-0.3-0.1-0.3-0.3c0-1.8,0.5-9.4,2.2-17.9c1.5-7.6,4.4-17.9,9.6-23.7c0.1-0.1,0.3-0.1,0.4,0
		c0.1,0.1,0.1,0.3,0,0.4c-9.5,10.8-11.7,37.6-11.7,41.3C55.1,176.9,55,177.1,54.8,177.1z"/>
	<path class="st15" d="M63.2,140.7c-0.1,0-0.2-0.1-0.3-0.2l-2.1-8.1c0-0.1,0.1-0.3,0.2-0.3c0.1,0,0.3,0.1,0.3,0.2l2.1,8.1
		C63.5,140.5,63.4,140.7,63.2,140.7C63.2,140.7,63.2,140.7,63.2,140.7z"/>
	<path class="st15" d="M64.5,156.1c-0.1,0-0.2-0.1-0.3-0.2c-0.1-0.1,0-0.3,0.2-0.4l4.6-1.9c0.1-0.1,0.3,0,0.4,0.2
		c0.1,0.1,0,0.3-0.2,0.4l-4.6,1.9C64.6,156.1,64.5,156.1,64.5,156.1z"/>
	<path class="st14" d="M106.5,84c0.7,0.1,2.4,0.4,3.7,0.1c1.3-0.2,1.2-2.9-0.4-3C108.2,81.1,106.5,84,106.5,84z"/>
	<path class="st14" d="M97.8,118.2c-0.5,1.5-5.2,20.6-6.1,21.6s-26.5,14.2-26.5,14.2l1.7,4.4c0,0,26.8-8.5,28.2-9.3
		c1.4-0.8,11.9-10,13.5-13.9C110.2,131.2,99.6,118.2,97.8,118.2z"/>
	<path class="st14" d="M123.4,170.5c0,0.4-0.3,3.2,0.3,3.5c0.5,0.3,6.2,0.4,6.4,0.2s0.4-0.8,0.2-1c-0.2-0.2-2.4-0.6-2.7-0.8
		c-0.3-0.2-0.7-1.3-0.6-1.9"/>
	<path class="st14" d="M65.4,154.4c-0.4,0.2-3.1,1-3.1,1.6c0,0.6,2,5.9,2.3,6c0.3,0.1,0.9,0.1,0.9-0.2s-0.4-2.5-0.3-2.8
		c0.1-0.4,0.9-1.2,1.5-1.2"/>
	<path class="st18" d="M122.4,107.3c-0.5,0.2-5,1.3-5.4,1.3s-1.1,4.4-0.6,4.4c0.5,0,6.2-1.8,7.7-1.9
		C125.5,110.9,122.4,107.3,122.4,107.3z"/>
	<path class="st10" d="M106.3,88.1c3.3-0.3,9.4,1.3,11.3,2.4c3.8,2.2-0.6,29.9-2.5,32c-1.7,0.7-16.5-2.8-17.3-4.3
		c0.4-3,6.3-13.3,6.8-13.8c-0.4-0.4-2-2.4-2-2.4s1.5-2,1.7-2.1c-0.5-0.3-5.3-4.1-5.5-4.3C99.6,94.1,105.2,88.2,106.3,88.1z"/>
	<path class="st18" d="M111,112.3c-0.3-0.6-8.2-9.9-8.5-10.3c0.4-0.6,1.2-1.5,1.7-2.2c-2.3-1.7-4.7-3.5-5.6-4.3c0,0,0,0,0,0.1
		c-0.4,0.5-3.9,5.8-3.9,6.5s10.8,11.3,12.2,11.8C108.2,114.3,111.3,112.9,111,112.3z"/>
	
		<ellipse transform="matrix(0.5473 -0.837 0.837 0.5473 -45.4118 143.2578)" class="st18" cx="109.7" cy="113.6" rx="2.9" ry="3.2"/>
	<circle class="st18" cx="123.7" cy="109" r="2.6"/>
	<path class="st15" d="M115,122.5c0,0,7.5,14.7,8.7,17.8c1.2,3.1,4,30.3,4,30.3s-3.7,0.4-4.8,0c-1-0.4-5.2-20.3-7.5-24.3
		c-3.5-6.2-22.5-17.7-17.7-28.1"/>
	<path class="st18" d="M111.2,79.2c-0.1,0.5,3.8,1.2,3.9,0.7L116,75l-3.9-0.7L111.2,79.2z"/>
	<path class="st14" d="M112.9,86.8c-0.4-0.1-3,0.6-3.1,1.2l0.6-3.2C110.9,84.9,112.9,86.8,112.9,86.8z"/>
	<circle class="st18" cx="114.4" cy="81.7" r="5.6"/>
	<ellipse transform="matrix(0.1766 -0.9843 0.9843 0.1766 15.8045 186.4052)" class="st19" cx="119.3" cy="83.8" rx="0.5" ry="1"/>
	<ellipse transform="matrix(0.1766 -0.9843 0.9843 0.1766 11.8781 179.5348)" class="st19" cx="113.2" cy="82.7" rx="0.5" ry="1"/>
	<path class="st14" d="M117,84.2c-0.1,0-0.1,0-0.1-0.1c0-0.1,0-0.1,0.1-0.1c0.2-0.1,0.4-0.2,0.4-0.3c0.2-0.4-0.1-1-0.3-1.2
		c0,0,0-0.1,0-0.1c0-0.1,0-0.1,0.1-0.1c0.1,0,0.1,0,0.1,0.1c0,0,0,0.1,0,0.1c0.2,0.3,0.5,1,0.3,1.4C117.5,84,117.3,84.1,117,84.2
		C117,84.2,117,84.2,117,84.2z"/>
	<path class="st14" d="M114.8,85.1C114.8,85.1,114.8,85.1,114.8,85.1c-0.4-0.1-0.8-0.5-1-0.9c0-0.1,0-0.1,0.1-0.1
		c0.1,0,0.1,0,0.1,0.1c0.2,0.4,0.5,0.8,0.8,0.8c0.1,0,0.1,0.1,0.1,0.1C114.9,85.1,114.8,85.1,114.8,85.1z"/>
	<path class="st14" d="M104,100.2C104,100.2,103.9,100.2,104,100.2c-0.1-0.1-0.1-0.1-0.1-0.2c0.1-0.1,0.3-0.4,0.6-0.7
		c0.8-1,2-2.4,2.6-2.9c0,0,0.1,0,0.1,0c0,0,0,0.1,0,0.1c-0.6,0.5-1.8,1.9-2.6,2.9C104.4,99.8,104.2,100,104,100.2
		C104,100.2,104,100.2,104,100.2z"/>
	<path class="st14" d="M115.1,74.2c-1.5,0-5.9-0.7-7-1.5c-0.4,0.3-2,2.1-3.2,4.5l2.3,1.8l-2.7-0.9c-0.5,1.2-0.9,2.5-0.9,3.8
		c0.9,1.7,3.1,2.2,3.5,2.2c2.6,0,3.1-4.1,4.3-4.8c2.1-1.1,4.9,0.7,8.2,0.2C120.1,78,118.7,74.2,115.1,74.2z"/>
	<circle class="st18" cx="109.2" cy="81.4" r="1.3"/>
	<path class="st14" d="M104.8,112.2c-0.5-0.4-4.8,0.2-5.8,2.5c1.2-2.6,2.3-4.8,2.7-5.4C102,109.7,104.8,112.2,104.8,112.2z"/>
	<path class="st14" d="M118.2,108.7c-0.1,0.7,0.6,3.6,2,3.2l-2.5,0.7L118.2,108.7z"/>
	<path class="st11" d="M39.1,83.2c7.6,0,10.1,5.1,10.1,8.7c0,7.4-1.6,5.8-1.6,13.5c0,8.3,10.6,18.7,10.6,32.9
		c0,19.5-17,22.3-19.1,22.3c-10.7,0-14.7-11.8-14.7-19c0-8.5,7.5-17.6,7.5-25.8c0-6-2-8.3-2-17.6C29.9,89,35.3,83.2,39.1,83.2z"/>
	<path class="st15" d="M38.5,177.1c-0.2,0-0.3-0.1-0.3-0.3V95.5c0-0.2,0.1-0.3,0.3-0.3s0.3,0.1,0.3,0.3v81.3
		C38.8,176.9,38.7,177.1,38.5,177.1z"/>
	<path class="st15" d="M38.5,148.5c-0.1,0-0.1,0-0.2-0.1c-0.1-0.1-0.1-0.3,0-0.4l12.6-12.9c0.1-0.1,0.3-0.1,0.4,0
		c0.1,0.1,0.1,0.3,0,0.4l-12.6,12.9C38.7,148.5,38.6,148.5,38.5,148.5z"/>
	<path class="st15" d="M38.2,112.3c-0.1,0-0.1,0-0.2-0.1l-4.1-4.1c-0.1-0.1-0.1-0.3,0-0.4c0.1-0.1,0.3-0.1,0.4,0l4.1,4.1
		c0.1,0.1,0.1,0.3,0,0.4C38.4,112.3,38.3,112.3,38.2,112.3z"/>
	<path class="st15" d="M38.5,101.4c-0.1,0-0.1,0-0.2-0.1c-0.1-0.1-0.1-0.3,0-0.4l5.7-5.7c0.1-0.1,0.3-0.1,0.4,0
		c0.1,0.1,0.1,0.3,0,0.4l-5.7,5.7C38.7,101.4,38.6,101.4,38.5,101.4z"/>
	<path class="st12" d="M148.7,107.3c7.2-2,9.8,26.2,6.2,27C151.3,135.2,144.5,108.4,148.7,107.3z"/>
	<path class="st15" d="M154.9,134.5c-0.1,0-0.2-0.1-0.2-0.2c-0.7-8.6-4-20.5-4.6-22.3c0-0.1,0-0.2,0.1-0.2c0.1,0,0.2,0,0.2,0.1
		c0.6,1.8,3.9,13.7,4.6,22.4C155.1,134.4,155,134.5,154.9,134.5C154.9,134.5,154.9,134.5,154.9,134.5z"/>
	<path class="st11" d="M176.1,103c1.7,0,3.5,2.7,3.6,3.6c0.3,2.6-0.7,4.4-0.6,5.4c0.1,2.4,1,4.5,0.4,5.7c-3.8,7.6-16.8,5.9-18.4,8.5
		c-0.4,0.7-1.5,3.1-1.5,3.1c-0.6-0.6-2.1-4.7-2.1-6.4s2.2-6.1,6.6-9.2C166.4,112.1,170.6,103,176.1,103z"/>
	<path class="st15" d="M158.2,133.7C158.2,133.7,158.2,133.7,158.2,133.7c-0.2,0-0.2-0.1-0.2-0.2c0.1-0.2,1.3-4.4,4.3-9.5
		c3.5-6,7.9-10.4,12.9-13.2c0.1,0,0.2,0,0.3,0.1c0.1,0.1,0,0.2-0.1,0.3c-4.9,2.8-9.2,7.2-12.7,13.1c-3,5-4.2,9.2-4.3,9.4
		C158.4,133.6,158.3,133.7,158.2,133.7z"/>
	<path class="st15" d="M171.2,113.8C171.2,113.8,171.1,113.8,171.2,113.8c-0.1,0-0.2-0.1-0.2-0.2c0-0.1,0-0.3,0.1-0.4
		c0.1-0.8,0.4-2-0.1-3.8c0-0.1,0-0.2,0.1-0.2c0.1,0,0.2,0,0.2,0.1c0.5,1.8,0.2,3.2,0.1,4c0,0.2-0.1,0.3-0.1,0.4
		C171.3,113.8,171.3,113.8,171.2,113.8z"/>
	<path class="st15" d="M168.3,116.5C168.3,116.5,168.3,116.5,168.3,116.5c-0.1,0-0.2-0.1-0.2-0.2c0.1-1.1,0-2.7-0.4-3.6
		c0-0.1,0-0.2,0.1-0.2c0.1,0,0.2,0,0.2,0.1c0.4,1,0.5,2.6,0.4,3.7C168.5,116.4,168.4,116.5,168.3,116.5z"/>
	<path class="st15" d="M171.6,119.8C171.5,119.8,171.5,119.8,171.6,119.8c-2-0.5-3.9-0.6-5.9-0.3c-0.1,0-0.2-0.1-0.2-0.2
		c0-0.1,0.1-0.2,0.2-0.2c2-0.3,4-0.2,6,0.3c0.1,0,0.2,0.1,0.1,0.2C171.7,119.8,171.6,119.8,171.6,119.8z"/>
	<polygon class="st17" points="173.3,118.7 159.1,177.2 187.4,177.2 	"/>
	<path class="st17" d="M36.8,177.2c0-1.7,3.2-7.8,8.5-7.8c5.3,0,6.5,1.9,10.8,1.9c3.3,0,3-1.3,6.1-1.3c6.3,0,8.7,5,8.7,7.2
		L36.8,177.2z"/>
	<path class="st15" d="M173.3,177.5c-0.2,0-0.3-0.1-0.3-0.3v-40c0-0.2,0.1-0.3,0.3-0.3c0.2,0,0.3,0.1,0.3,0.3v40
		C173.5,177.4,173.4,177.5,173.3,177.5z"/>
	<path class="st15" d="M193.6,177.5c-0.2,0-0.3-0.1-0.3-0.3v-60.9c0-0.2,0.1-0.3,0.3-0.3c0.2,0,0.3,0.1,0.3,0.3v60.9
		C193.9,177.4,193.8,177.5,193.6,177.5z"/>
	<path class="st15" d="M173.3,152.4c-0.1,0-0.1,0-0.2-0.1c-0.1-0.1-0.1-0.3,0-0.4l3.8-3.8c0.1-0.1,0.3-0.1,0.4,0
		c0.1,0.1,0.1,0.3,0,0.4l-3.8,3.8C173.4,152.4,173.3,152.4,173.3,152.4z"/>
	<path class="st15" d="M173.3,168.7c-0.1,0-0.1,0-0.2-0.1l-5.8-5.8c-0.1-0.1-0.1-0.3,0-0.4c0.1-0.1,0.3-0.1,0.4,0l5.8,5.8
		c0.1,0.1,0.1,0.3,0,0.4C173.4,168.6,173.3,168.7,173.3,168.7z"/>
	<path class="st15" d="M193.6,134c-0.1,0-0.1,0-0.2-0.1l-4.3-4.3c-0.1-0.1-0.1-0.3,0-0.4c0.1-0.1,0.3-0.1,0.4,0l4.3,4.3
		c0.1,0.1,0.1,0.3,0,0.4C193.7,134,193.7,134,193.6,134z"/>
	<path class="st15" d="M193.6,158.6c-0.1,0-0.1,0-0.2-0.1c-0.1-0.1-0.1-0.3,0-0.4l8.5-8.5c0.1-0.1,0.3-0.1,0.4,0
		c0.1,0.1,0.1,0.3,0,0.4l-8.5,8.5C193.7,158.6,193.7,158.6,193.6,158.6z"/>
	<path class="st3" d="M31,59.9c0-2.7,6.7-3.3,9.4-3.3c5.4,0,5.7-3.1,10.2-3.1c3.9,0,5.9,3.2,9.6,3.2c7.9,0,9.6-9.1,17.3-9.1
		c7.8,0,7.4,9.4,14.6,9.4c3.7,0,25.8,0.7,25.8,2.8L31,59.9z"/>
	<path class="st3" d="M138.1,71.4c0-1.7,5.8-4.4,9-4.4c6.3,0,4.3,2.2,8.3,2.2c4.5,0,5.5-9.8,12.4-9.8c7.5,0,6.3,9.6,10.9,9.6
		c2,0,3-0.9,5.8-0.9c1.6,0,3.4,1.6,3.4,3.3L138.1,71.4z"/>
</g>
</svg>
