<?xml version="1.0" encoding="utf-8"?>
<!-- Generator: Adobe Illustrator 21.0.0, SVG Export Plug-In . SVG Version: 6.00 Build 0)  -->
<svg version="1.1" id="Capa_1" xmlns="http://www.w3.org/2000/svg" xmlns:xlink="http://www.w3.org/1999/xlink" x="0px" y="0px"
	 viewBox="0 0 223 195" style="enable-background:new 0 0 223 195;" xml:space="preserve">
<style type="text/css">
	.st0{fill:#FAEFE9;}
	.st1{fill:#FFFFFF;}
	.st2{fill:none;stroke:#000000;stroke-miterlimit:10;}
	.st3{fill:#F2F2F2;}
	.st4{opacity:0.7;fill:#50B89D;enable-background:new    ;}
	.st5{font-family:'ArialMT';}
	.st6{font-size:9.2666px;}
	.st7{opacity:0.44;fill:#50B89D;enable-background:new    ;}
	.st8{fill:#AB8DE5;}
	.st9{fill:#73E5E2;}
	.st10{fill:#50B89D;}
	.st11{fill:#F98B67;}
	.st12{fill:#1F161E;}
	.st13{fill:#FBDC8E;}
	.st14{fill:none;stroke:#FFFFFF;stroke-width:0.4;stroke-linecap:round;stroke-linejoin:round;}
	.st15{fill:#B37361;}
	.st16{fill:#F8CDBA;}
	.st17{fill:#FA9E9F;}
	.st18{fill:none;stroke:#1F161E;stroke-linecap:round;stroke-miterlimit:10;}
	.st19{fill:#969696;}
</style>
<title>example-scene-1</title>
<g id="Layer_2">
	<g id="Background">
		<circle class="st0" cx="110.5" cy="98.5" r="81.3"/>
	</g>
	<g id="Middle_ground">
		<rect x="105.8" y="63" class="st1" width="49.9" height="77.2"/>
		<line class="st2" x1="95.8" y1="110.2" x2="146.9" y2="110.2"/>
		<line class="st2" x1="95.8" y1="115.2" x2="146.9" y2="115.2"/>
		<line class="st2" x1="95.8" y1="120.3" x2="146.9" y2="120.3"/>
		<line class="st2" x1="95.8" y1="125.3" x2="146.9" y2="125.3"/>
		<circle class="st3" cx="130.7" cy="85.6" r="13"/>
		<rect x="146.9" y="90.5" class="st4" width="20.6" height="19.1"/>
		<text transform="matrix(0.6 0 0 1 152.209 103.1104)" class="st1 st5 st6">&lt; / &gt;</text>
		<rect x="19.6" y="25.1" class="st2" width="111.3" height="73.2"/>
		<line class="st2" x1="19.6" y1="29" x2="130.9" y2="29"/>
		<rect x="27.7" y="35.5" class="st2" width="33.5" height="33.5"/>
		<line class="st2" x1="67.6" y1="38.4" x2="118.7" y2="38.4"/>
		<line class="st2" x1="67.6" y1="43.5" x2="118.7" y2="43.5"/>
		<line class="st2" x1="67.6" y1="48.5" x2="118.7" y2="48.5"/>
		<line class="st2" x1="67.6" y1="53.6" x2="118.7" y2="53.6"/>
		<polygon class="st7" points="44.5,44.3 35.3,60.1 53.6,60.1 		"/>
		<circle class="st8" cx="22" cy="27.1" r="0.9"/>
		<circle class="st9" cx="25.3" cy="27.1" r="0.9"/>
		<circle class="st10" cx="28.6" cy="27.1" r="0.9"/>
		<polygon class="st8" points="68.6,84.8 71.8,82 68.6,82 		"/>
		<path class="st8" d="M69.8,71.6h15.7c2.4,0,4.4,1.9,4.4,4.4v2c0,2.4-1.9,4.4-4.4,4.4H69.8c-2.4,0-4.4-1.9-4.4-4.4v-2
			C65.5,73.5,67.4,71.6,69.8,71.6z"/>
		<circle class="st1" cx="74.4" cy="76.9" r="0.9"/>
		<circle class="st1" cx="77.7" cy="76.9" r="0.9"/>
		<circle class="st1" cx="81" cy="76.9" r="0.9"/>
		<polygon class="st9" points="168.6,53.2 165.4,50.4 168.7,50.4 		"/>
		<path class="st9" d="M167.4,50.7h-15.7c-2.4,0-4.4-1.9-4.4-4.4v-2c0-2.4,1.9-4.4,4.4-4.4h15.7c2.4,0,4.4,1.9,4.4,4.4v2
			C171.8,48.8,169.8,50.7,167.4,50.7z"/>
		<circle class="st1" cx="162.8" cy="45.4" r="0.9"/>
		<circle class="st1" cx="159.5" cy="45.4" r="0.9"/>
		<circle class="st1" cx="156.3" cy="45.4" r="0.9"/>
		<circle class="st11" cx="166.9" cy="26.1" r="0.9"/>
		<circle class="st11" cx="168.9" cy="30" r="0.9"/>
		<circle class="st11" cx="147.1" cy="68.4" r="1.5"/>
		<circle class="st11" cx="155.8" cy="73.5" r="1.5"/>
		<circle class="st11" cx="23.2" cy="75.1" r="1.5"/>
		<path class="st12" d="M150.5,142.4v-0.2l-0.5-0.6l-1.2-1.4l-1.2-1.5c0,0-1.2-0.8-1.5-1c-1.1-0.5-2.2-0.9-3.5-0.9
			c-0.8,0-3.8,0.1-3.8,0.6c0,0.8,4.2,3.6,7.3,5C147.5,142.4,150.5,142.4,150.5,142.4z"/>
		<path class="st13" d="M149.9,142.4c-4.3-3.3-13.1-21.4-10.9-28.1c4.8,2.5,10.1,10.9,12.6,18c0.1,0.5,0.2,0.9,0.3,1.4l1,4.6
			l0.2,4.1H149.9z"/>
		<path class="st9" d="M152.8,142.4c-1.5-1.2-1.9-4.7-1.9-6c0-2.4,0.4-4.2,2.4-6.9c2.1-2.7,1.5-7.1,4.3-10.1s4.6-3.8,7.9-3.8
			s4.3,5.3,4.3,6.7c0,5.4-3.4,6.2-5.5,8.8c-1.5,1.9-1.6,3.4-2.1,4.3c-2.4,4.7-4.4,6.5-5.9,7.2"/>
		<path class="st14" d="M153.7,142c0-9.2,9.8-23.1,11.8-25.2"/>
		<path class="st14" d="M154.2,137.8c-1.1-1.2-2.1-4.5-1.9-5.4"/>
		<path class="st14" d="M151.4,141.6c-1.5-2.7-8.8-15.9-11.4-25.6"/>
		<path class="st15" d="M156.3,142.4h4.5l-3.8,14.1h-10l-3.7-14.1H156.3"/>
		<path class="st14" d="M140.2,137.7c2.2,0.2,5,0.3,6.9,1.6"/>
	</g>
	<g id="Man">
		<path class="st12" d="M175.2,84.7c-0.5,2.5-4.4,34-3.1,41.6c1.3,7.5,21.9,23.3,22.8,23.6c1.1-0.8,2.6-3.3,2.6-3.3
			s-15.1-17.5-15.4-18.2c-0.3-0.7,3.3-41.3,3.3-41.3L175.2,84.7z"/>
		<polygon class="st8" points="199.8,90.5 184.4,153.4 179.2,153.4 184.5,87.7 		"/>
		<path class="st13" d="M188.9,54.4c2.1,0,13.2,0.4,15.2,4.3s0.1,22-1.1,22.7c-0.7,0.4-0.9,0-1.1,0.8c-0.2,0.8-2.1,8.3-2.1,8.3
			c-1.2,0-18.9-2.6-24.6-5.7c0-0.9,0.3-3.1,0.3-3.3c-0.8,0.3-1.7,0.4-1.9,0c-2.2-3.4,1.1-21.1,3.5-24.6
			C178.1,55.3,185.5,54.4,188.9,54.4z"/>
		<path class="st12" d="M196.2,81.9c0.5,0,5,3.2,4.6,4.7c0.3-1.2,1.3-5.1,1.3-5.1C201.7,81.6,196.6,81.9,196.2,81.9z"/>
		<path class="st16" d="M191.6,56.5c0,0.7-5.4,0.7-5.4,0v-6.9h5.4V56.5z"/>
		<path class="st12" d="M188.5,51.2c0.4,0,3.1,1.2,3.1,1.8v-3.5C191,49.5,188.5,51.2,188.5,51.2z"/>
		<circle class="st16" cx="187.8" cy="46.4" r="5.3"/>
		<path class="st12" d="M186,38.7c-2.7,0-4.4,1.7-4.4,3.9c0,1.8,0.4,2.8,1,3.1c0.3-1.8,1-2.6,1.6-2.9c0.5,0.3,1.2,1.2,2.3,1.5
			c1,0.3,3.8,0.2,6,1.8c0.7-0.7,1.4-1.5,1.4-2.5s-0.4-2.3-3-3C189.1,40.1,188.9,38.7,186,38.7z"/>
		<ellipse class="st17" cx="182.9" cy="47.5" rx="0.9" ry="0.5"/>
		<ellipse class="st17" cx="188.7" cy="47.5" rx="0.9" ry="0.5"/>
		<path class="st18" d="M185.1,46.5c-0.2,0.2-1.1,1.3-0.1,1.7"/>
		<path class="st18" d="M186.9,49.4c0.3,0,0.7-0.3,0.9-0.7"/>
		<circle class="st16" cx="192.6" cy="47" r="1.2"/>
		<path class="st18" d="M196.3,64.8c-0.1,1.2-0.5,6.9-0.3,7.7c-1.8,0.6-17.9,8.3-20.7,9.1"/>
		<path class="st18" d="M177.5,63c-0.4,1.3-1.6,7.2-0.7,9.9"/>
		<path class="st18" d="M181.7,78.9c0.8,0.6,8.9,4.2,20.1,2.8"/>
		<path class="st16" d="M180.9,72.9c0.5,0.1-1.2-1.3-2.2-0.8s-2.3,2.9-2.1,3.4c0.1,0.4,0.5,0.6,0.9,0.4c0,0,0.1,0,0.1-0.1
			C177.9,75.7,180,72.8,180.9,72.9z"/>
		<path class="st12" d="M197.3,146.8c0.3,0.2,2.8,1.9,2.9,3c0,1.1-2.4,4.7-2.9,4.8s-0.8-0.3-0.8-1s0.9-2,0.8-2.6s-1.3-1.6-1.9-1.6"
			/>
		<path class="st12" d="M183.9,153.4c0,0.5,0.3,3.6-0.3,3.9c-0.6,0.3-7,0.5-7.3,0.2s-0.5-0.9-0.2-1.1c0.3-0.2,2.7-0.7,3.1-0.9
			s0.8-1.5,0.6-2.1"/>
	</g>
	<g id="Woman">
		<rect x="17.5" y="130" class="st15" width="40.7" height="20.6"/>
		<path class="st12" d="M78.3,120.4c0.2,1.1,3.2,25.1,3.7,25.5s5.6,1.3,6.1,0.6c0.1-1.1,0.2-17.8,0.5-19.3"/>
		<path class="st10" d="M20.2,115.3c-2.1-1,2.3,19.3,13.7,19.3s30.6-17.4,33.8-17.4c6.9,0,23.1,13.5,24.4,13.5c1-1,2.9-2.7,2.9-3.4
			S79.4,101,67.8,101C63.2,101.1,24.9,117.7,20.2,115.3z"/>
		<path class="st12" d="M26.6,115.7c2.3-0.5,5.1-1.9,7.6-3.2c-6.8,2.2-12.4,3.7-14.1,2.9c-1.1-0.5-0.4,4.9,2.2,10.1
			C21.9,124.5,21.2,116.9,26.6,115.7z"/>
		<path class="st9" d="M31.7,80c1.8,0,11.2-0.2,13.7,2.2c1.9,1.8,7.8,17.4,8.7,22.9c-4,2-32.7,15.8-41.5,9.7
			c-0.2-4.7,0.7-23.3,6.5-33.1C21.2,80.3,29.9,80,31.7,80z"/>
		<path class="st16" d="M35.3,75.6h-5.5v5.9c0,1.5,5.5,1.5,5.5,0V75.6z"/>
		<path class="st12" d="M29.8,79.1c0-0.7,1.8-2.3,2.9-2.2c0-0.7-2.6-1.8-2.6-1.8l-0.4,1L29.8,79.1z"/>
		<path class="st12" d="M41,75.6c0.1-0.6,0.2-1.1,0.2-1.7c0-4.3-3.4-7.9-7.6-7.9S26,69.5,26,73.9c0,0.6,0.1,1.2,0.2,1.7H41z"/>
		<path class="st16" d="M39,70.3c-0.9-0.1-1.9-0.9-2.5-1.3c-3.7,2.7-6,2.7-6.3,2.7s-1.3,1.5-1.8,1.7l0,0c0.6,3.1,3.6,5.2,6.7,4.6
			c3.1-0.6,5.2-3.6,4.6-6.7c-0.1-0.3-0.1-0.7-0.3-1C39.3,70.3,39.2,70.3,39,70.3z"/>
		<circle class="st12" cx="29.5" cy="64.7" r="2.2"/>
		<path class="st18" d="M30.5,71.6c-0.5,0-0.9,0.5-0.9,1s0.4,0.9,0.9,0.9"/>
		<path class="st18" d="M37.7,71.7c0.3,0.4,1,1,0,1.7"/>
		<path class="st18" d="M34.7,73.9c0,0.3,0.1,0.9,0.7,1.1"/>
		<ellipse class="st17" cx="32.9" cy="73.5" rx="0.9" ry="0.5"/>
		<ellipse class="st17" cx="39.3" cy="73.5" rx="0.9" ry="0.5"/>
		<path class="st16" d="M45.2,96.3l5.8-1.5c0.6,1,3.3,10.3,3.3,10.3l-9,3.8C45.4,107.2,45.8,99,45.2,96.3z"/>
		<path class="st18" d="M24.7,94.8c0,0.7-0.6,3.4-0.9,4.7"/>
		<path class="st18" d="M45.2,96.3c-0.1-1.1-1-7.4-2.4-10.7"/>
		<path class="st16" d="M45.2,96.3l5.8-1.5c0.6,1,3.3,10.3,3.3,10.3l-9,3.8C45.4,107.2,45.8,99,45.2,96.3z"/>
		<path class="st12" d="M92.2,130.2c0.1,0.2,1.9,2.3,2.5,2.4c0.6,0,4.4-2.5,4.2-3.1c-0.2-0.5-2.5-0.2-2.9-0.4s-1.3-1.1-1.5-1.5"/>
		<path class="st12" d="M83,146.1c0,0.2-0.3,3,0.1,3.4s4.9,1.2,5.1,0.7c0.3-0.5-1.7-1.9-1.8-2.3s-0.2-1.7,0-2.1"/>
		<polygon class="st19" points="76,105.7 56.2,105.7 60.9,93.2 80.7,93.2 		"/>
		<rect x="39.7" y="105.3" class="st19" width="19.8" height="0.5"/>
		<path class="st16" d="M23.7,99.5c-0.4,1.4-2.2,7.5-1.5,8.6c0.8,1.1,19.6-1.3,24.7-2.9c1.3-0.4,2.2-1.5,2.8-1.7
			c1.5-0.3,3,0.7,3.4,2.2c-2,1-31.1,15.8-40.6,9.2c-1.8-1.3,1.3-16.8,1.5-17.6C15.7,97.4,23.7,99.5,23.7,99.5z"/>
		<path class="st18" d="M45.5,105.5c0.6-0.1,1.1-0.3,1.5-0.4c1.3-0.4,2.2-1.5,2.8-1.7c1.5-0.3,3,0.7,3.4,2.2"/>
	</g>
</g>
</svg>
