<?xml version="1.0" encoding="utf-8"?>
<!-- Generator: Adobe Illustrator 21.0.0, SVG Export Plug-In . SVG Version: 6.00 Build 0)  -->
<svg version="1.1" id="Capa_1" xmlns="http://www.w3.org/2000/svg" xmlns:xlink="http://www.w3.org/1999/xlink" x="0px" y="0px"
	 viewBox="0 0 227 234" style="enable-background:new 0 0 227 234;" xml:space="preserve">
<style type="text/css">
	.st0{fill:none;stroke:#000000;stroke-width:4;stroke-linecap:round;stroke-miterlimit:10;}
	.st1{fill:none;stroke:#000000;stroke-width:2;stroke-linecap:round;stroke-miterlimit:10;}
	.st2{fill:none;stroke:#1F161E;stroke-linecap:round;stroke-miterlimit:10;}
	.st3{fill:#523D0B;}
	.st4{fill:#FBDC8E;}
	.st5{fill:#97BAE5;}
	.st6{fill:#FFFFFF;}
	.st7{fill:#E5AA20;}
	.st8{fill:#1F161E;}
	.st9{fill:#558BB7;}
	.st10{fill:#F8CDBA;}
	.st11{fill:#FA9E9F;}
	.st12{fill:#969696;}
	.st13{fill:#D8D8D8;}
</style>
<title>example-scene-2</title>
<ellipse cx="141.5" cy="184.5" rx="23.8" ry="5.3"/>
<line class="st0" x1="154.9" y1="226.4" x2="141.5" y2="184.5"/>
<line class="st0" x1="128.1" y1="226.4" x2="141.5" y2="184.5"/>
<line class="st1" x1="135.6" y1="203" x2="150.5" y2="212.6"/>
<line class="st1" x1="132.6" y1="212.6" x2="147.5" y2="203"/>
<path class="st2" d="M118.4,150.3c-0.3-2.8-0.3-9.3-0.3-11.2"/>
<path class="st3" d="M103.4,49.3v8.3c0,1.3-1.1,2.4-2.4,2.4l0,0c-1.3,0-2.4-1.1-2.4-2.4v-8.3c0-1.3,1.1-2.4,2.4-2.4l0,0
	C102.3,46.9,103.4,48,103.4,49.3z"/>
<circle class="st4" cx="101" cy="69" r="4.8"/>
<path class="st5" d="M92.2,104.3v6.4c0,0.6-0.5,1.1-1.1,1.1H71.6c-0.6,0-1.1-0.5-1.1-1.1v-6.4c0-0.6,0.5-1.1,1.1-1.1h19.5
	C91.7,103.2,92.2,103.7,92.2,104.3z"/>
<polygon class="st5" points="84,109.8 78.7,109.8 81.4,117.8 "/>
<polygon class="st6" points="84.4,109.3 88.8,109.3 86.6,105.5 "/>
<polygon class="st6" points="78.4,105.5 74,105.5 76.2,109.3 "/>
<circle class="st6" cx="81.4" cy="107.4" r="1.7"/>
<path class="st7" d="M101,54.6c-8,0-14.5,6.5-14.5,14.5h28.9c0,0,0,0,0,0C115.4,61,109,54.6,101,54.6C101,54.6,101,54.6,101,54.6z"
	/>
<path class="st3" d="M101,50.7c-0.6,0-1-0.4-1-1V-2.8c0-0.6,0.4-1,1-1s1,0.4,1,1v52.5C102,50.2,101.5,50.7,101,50.7z"/>
<path class="st8" d="M76.3,221.4c0.3,1.2-0.5,3.4-1.1,3.8s-5.1,1.3-5.5,1.6s-0.1,1.4,0.4,1.9c0.5,0.5,12,0.2,13.1-0.3
	c1-0.5,0.5-6.2,0.5-7.1"/>
<path class="st5" d="M118.4,150.8c4.6-0.3,10-0.8,10-0.8l24.4-1.7c0,0,20.8-3.8,20.8-11.2c0-7.4-1.4-28.4-5.9-32.9
	c-1.5-1.5-7.2-3.7-26.6-3.7c-3.3,0-21.5,1.6-22.4,2.5c-3.9,3.9-6.7,30.3-7,42.1l6.5,2.3C118,147.6,118.3,149.4,118.4,150.8z"/>
<path class="st8" d="M82.5,185.7L69.3,214h-9.7c0-1.2,12.1-55.4,15.9-59.2c3.8-3.8,21.5-0.9,23.2-0.4"/>
<path class="st9" d="M91.2,152.9c-10.5,7.1-16.3,69.3-16.3,69.3h9.4c0.1-0.9,20.5-42.5,21.6-44.4c1.7,0.8,26.3,5.4,41.6,5.4
	c4.9,0,18.5-0.4,18.5-17c0-12-2.7-14.4-3.1-16.6C155.1,148.2,94.6,150.7,91.2,152.9z"/>
<path class="st10" d="M97.8,143.7c0,1.7,2.8,2.9,4.4,2.9c2.3,0,4.3-2,8.1-2c1.5,0,2.8,3,8,5.1l-0.3-10.7c-5.6-1.1-7.6-1.7-10.1-1.7
	C104.9,137.4,97.8,140.2,97.8,143.7z"/>
<path class="st8" d="M61.5,213.2c0.3,1.2-0.5,3.4-1.1,3.8c-0.6,0.4-5.1,1.3-5.5,1.6c-0.5,0.3-0.1,1.4,0.4,1.9
	c0.5,0.5,12,0.2,13.1-0.3c1-0.5,0.5-6.2,0.5-7.1"/>
<path class="st10" d="M137.5,91.5h8.3v11.6c0,1.5-8.3,1.4-8.3,0V91.5z"/>
<path class="st8" d="M145.8,92.4v6.3c0-1.2-4.8-3.3-5.6-3.3C140.2,95.3,144.6,92.4,145.8,92.4z"/>
<circle class="st10" cx="138.6" cy="85.8" r="10"/>
<path class="st8" d="M130.5,79.9c-0.4,0.6-0.8,1.3-1.1,2c-1.3,0-4.7-2.7-4.7-5.5c0-1.3,1-3.3,3.9-3.3c1.6,0,3.1,0.6,4.3,1.6
	c-0.5-0.4-1.5-2.2-1.5-4.4c0-1.3,1.2-2.4,3.8-2.4c2.2,0,7.9,2,7.9,6.3c0.2-0.2,0.9-0.6,2.8-0.6c2.1,0,5.2,2.9,5.2,7.6
	c0,3.3-1.4,4.4-1.4,5.6c0,1.2,0.6,1.7,0.6,3.1c0,1.2-1,2-1.5,2c-0.9,0-1.5-0.3-1.5-0.8c0-0.7-0.7-3-0.7-3.6
	c-0.3-3.4-1.8-5.2-3.2-5.9c-2.5-1.4-6-0.7-8.4-0.7c-2.8,0-5.4-0.9-6.6-2.9"/>
<circle class="st10" cx="146.1" cy="87.1" r="2.1"/>
<ellipse class="st11" cx="128.5" cy="86.8" rx="1.7" ry="0.9"/>
<ellipse class="st11" cx="138.9" cy="86.8" rx="1.7" ry="0.9"/>
<path class="st2" d="M132.3,88.1c-1.7-0.8-0.1-2.6,0.2-3"/>
<path class="st2" d="M137.3,89c-0.4,0.6-1.2,1.2-1.7,1.2"/>
<path class="st2" d="M118,139.1c0-4.9,3.6-20.4,4.4-22"/>
<path class="st10" d="M154.4,135.9c0.2,0.4,1.5,5.1,1.5,7.2c0,1.1-1.1,1.4-1.8,1.4c-0.7,0-28.1-6.6-34.9-6.6c-3,0-10.2,2.8-10.2,6.3
	c0,1.7,2.8,2.9,4.4,2.9c2.3,0,4.3-2,8.1-2c4.3,0,28.7,13.2,44.8,13.2c7,0,7.2-5.1,7.2-22.5L154.4,135.9z"/>
<path class="st2" d="M154.9,137.4c-0.4-1.7-4-15.4-4.5-16.7"/>
<path class="st12" d="M10.3,225.7l19.3-73.6c0.3-1,1.3-1.7,2.4-1.4l0,0c1,0.3,1.7,1.3,1.4,2.4L14,226.7c-0.3,1-1.3,1.7-2.4,1.4l0,0
	C10.6,227.8,10,226.7,10.3,225.7z"/>
<path class="st12" d="M37.3,152.2l19.3,73.6c0.3,1-0.3,2.1-1.4,2.4l0,0c-1,0.3-2.1-0.3-2.4-1.4l-19.3-73.6c-0.3-1,0.3-2.1,1.4-2.4
	l0,0C36,150.5,37,151.1,37.3,152.2z"/>
<path class="st13" d="M64,152.2l19.3,73.6c0.3,1-0.3,2.1-1.4,2.4l0,0c-1,0.3-2.1-0.3-2.4-1.4l-19.3-73.6c-0.3-1,0.3-2.1,1.4-2.4l0,0
	C62.7,150.5,63.7,151.1,64,152.2z"/>
<path class="st13" d="M37.3,224.4l19-73.8c0.3-1,1.3-1.7,2.4-1.4l0,0c1,0.3,1.7,1.3,1.4,2.4l-19,73.8c-0.3,1-1.3,1.7-2.4,1.4l0,0
	C37.7,226.5,37,225.4,37.3,224.4z"/>
<path class="st12" d="M173,152.2l19.3,73.6c0.3,1-0.3,2.1-1.4,2.4h0c-1,0.3-2.1-0.3-2.4-1.4l-19.3-73.6c-0.3-1,0.3-2.1,1.4-2.4l0,0
	C171.6,150.5,172.7,151.1,173,152.2z"/>
<path class="st12" d="M146.3,225.7l19.3-73.6c0.3-1,1.3-1.7,2.4-1.4l0,0c1,0.3,1.7,1.3,1.4,2.4L150,226.7c-0.3,1-1.3,1.7-2.4,1.4
	l0,0C146.6,227.8,146,226.8,146.3,225.7z"/>
<path class="st13" d="M210.4,148.9v2.3c0,0.9-0.8,1.7-1.7,1.7H21.7c-0.9,0-1.7-0.8-1.7-1.7v-2.3c0-0.9,0.8-1.7,1.7-1.7h187.1
	C209.7,147.1,210.4,147.9,210.4,148.9z"/>
<path class="st13" d="M200.6,152.2l19.3,73.6c0.3,1-0.3,2.1-1.4,2.4h0c-1,0.3-2.1-0.3-2.4-1.4l-19.3-73.6c-0.3-1,0.3-2.1,1.4-2.4v0
	C199.3,150.5,200.3,151.1,200.6,152.2z"/>
<path class="st13" d="M173.9,225.7l19.3-73.6c0.3-1,1.3-1.7,2.4-1.4l0,0c1,0.3,1.7,1.3,1.4,2.4l-19.3,73.6c-0.3,1-1.3,1.7-2.4,1.4h0
	C174.3,227.8,173.6,226.8,173.9,225.7z"/>
<path d="M64.5,126.7c-0.1-0.2-0.1-0.5-0.1-0.7c0-1.4,1.2-2.5,2.5-2.5h29.7c1.1,0,2.1,0.7,2.4,1.8l6.3,21.8H70.4L64.5,126.7z"/>
<circle class="st6" cx="83.6" cy="135.3" r="2.1"/>
<rect x="101.2" y="145.6" width="24.5" height="1.5"/>
</svg>
