<?xml version="1.0" encoding="utf-8"?>
<!-- Generator: Adobe Illustrator 21.0.0, SVG Export Plug-In . SVG Version: 6.00 Build 0)  -->
<svg version="1.1" id="Capa_1" xmlns="http://www.w3.org/2000/svg" xmlns:xlink="http://www.w3.org/1999/xlink" x="0px" y="0px"
	 viewBox="0 0 129 36" style="enable-background:new 0 0 129 36;" xml:space="preserve">
<style type="text/css">
	.st0{fill:#FF9900;}
</style>
<g>
	<path class="st0" d="M27.6,15.2c0-0.4,0-0.6-0.1-0.9c0-0.2-0.2-0.3-0.4-0.4c-0.2-0.1-0.4-0.1-0.7-0.1c0-0.1,0-0.2,0-0.3
		s0-0.3,0-0.4c0.2,0,0.4,0,0.6,0c0.2,0,0.5,0,0.7,0c0.2,0,0.5,0,0.7,0s0.5,0,0.7,0s0.5,0,0.6,0c0.2,0,0.4,0,0.6,0c0,0.1,0,0.3,0,0.4
		c0,0.1,0,0.2,0,0.3c-0.3,0-0.5,0-0.7,0.1s-0.3,0.2-0.4,0.4c0,0.2-0.1,0.5-0.1,0.9v6.9c0,0.4,0,0.6,0.1,0.9c0,0.2,0.2,0.4,0.4,0.4
		c0.2,0.1,0.4,0.1,0.7,0.1c0,0.1,0,0.2,0,0.3s0,0.2,0,0.4c-0.3,0-0.7,0-1,0c-0.3,0-0.7,0-1,0s-0.6,0-1,0s-0.7,0-1,0
		c0-0.1,0-0.3,0-0.4s0-0.2,0-0.3c0.3,0,0.5-0.1,0.7-0.1c0.2-0.1,0.3-0.2,0.4-0.4c0-0.2,0.1-0.5,0.1-0.9L27.6,15.2L27.6,15.2z"/>
	<path class="st0" d="M33.1,20.7v-1.8c0-0.3,0-0.5-0.1-0.6s-0.2-0.3-0.4-0.4c-0.2-0.1-0.5-0.1-0.8-0.1c0-0.1,0-0.2,0-0.3
		c0-0.1,0-0.2,0.1-0.3c0.3,0,0.7-0.1,1.2-0.2c0.5-0.1,0.8-0.2,1.1-0.4c0.1,0,0.2,0.1,0.3,0.2c0.1,0.1,0.1,0.3,0.1,0.5L33.1,20.7z
		 M39.5,22.2c0,0.5,0.1,1,0.2,1.1s0.4,0.3,0.7,0.3c0,0.1,0,0.2,0,0.3c0,0.1,0,0.2,0,0.4c-0.2,0-0.5,0-0.8,0s-0.6,0-1,0
		c-0.2,0-0.5,0-0.7,0s-0.5,0-0.7,0s-0.4,0-0.6,0c0-0.1,0-0.3,0-0.4s0-0.2,0-0.3c0.4,0,0.7-0.1,0.9-0.3c0.2-0.2,0.3-0.6,0.3-1.1v-2.5
		c0-0.8-0.1-1.3-0.4-1.6c-0.3-0.3-0.6-0.4-1.1-0.4c-0.3,0-0.5,0.1-0.9,0.3c-0.3,0.2-0.5,0.5-0.7,0.9c-0.2,0.4-0.3,0.9-0.3,1.6v1.8
		c0,0.5,0.1,0.9,0.2,1.1c0.2,0.2,0.5,0.3,0.9,0.3c0,0.1,0,0.2,0,0.3c0,0.1,0,0.2,0,0.4c-0.1,0-0.3,0-0.5,0c-0.2,0-0.5,0-0.7,0
		s-0.5,0-0.7,0s-0.5,0-0.7,0s-0.5,0-0.7,0s-0.4,0-0.6,0c0-0.1,0-0.3,0-0.4s0-0.2,0-0.3c0.4,0,0.7-0.1,0.9-0.3
		c0.2-0.2,0.2-0.6,0.2-1.1v-3.2l1.5-1.6c0,0.1,0,0.3,0,0.5s0,0.3-0.1,0.5c0,0,0-0.1,0.1-0.2c0-0.1,0.1-0.1,0.1-0.2
		c0.2-0.3,0.5-0.5,0.9-0.8s0.9-0.4,1.5-0.4c0.4,0,0.8,0.1,1.1,0.3c0.4,0.2,0.6,0.5,0.9,0.8c0.2,0.4,0.3,0.9,0.3,1.6v2.8H39.5z"/>
	<path class="st0" d="M44.4,24.4c-0.1-0.2-0.2-0.5-0.4-1s-0.4-0.9-0.6-1.4c-0.2-0.5-0.5-1-0.7-1.5c-0.2-0.5-0.4-1-0.6-1.3
		c-0.2-0.4-0.3-0.6-0.4-0.8c-0.1-0.3-0.3-0.5-0.4-0.6s-0.2-0.2-0.3-0.3c-0.1,0-0.2-0.1-0.4-0.1c0-0.1-0.1-0.3-0.1-0.4
		c0-0.1,0-0.2,0-0.4c0.2,0,0.5,0,0.8,0c0.3,0,0.6,0,1,0c0.2,0,0.5,0,0.7,0c0.2,0,0.5,0,0.7,0c0.2,0,0.4,0,0.6,0c0,0.1,0,0.2,0,0.4
		c0,0.1,0,0.2-0.1,0.3c-0.5,0-0.9,0.1-1,0.3c-0.1,0.1,0,0.4,0.2,0.9c0.1,0.2,0.2,0.4,0.3,0.7s0.3,0.7,0.5,1.1
		c0.2,0.4,0.4,0.9,0.5,1.3s0.3,0.8,0.5,1.2h-0.2c0.3-0.7,0.5-1.4,0.8-1.9c0.2-0.5,0.5-1.1,0.6-1.6c0.3-0.7,0.4-1.2,0.3-1.5
		c-0.1-0.3-0.4-0.5-0.8-0.5c0-0.1-0.1-0.2-0.1-0.4s0-0.2,0-0.4c0.2,0,0.5,0,0.7,0c0.3,0,0.5,0,0.8,0c0.3,0,0.5,0,0.8,0
		c0.3,0,0.5,0,0.7,0c0,0.1,0,0.3,0,0.4c0,0.1,0,0.2-0.1,0.3c-0.2,0-0.3,0.1-0.5,0.2s-0.3,0.3-0.4,0.5c-0.1,0.2-0.3,0.6-0.5,1
		l-2.2,5.1c-0.1,0-0.2,0.1-0.4,0.1C44.7,24.4,44.6,24.4,44.4,24.4z"/>
	<path class="st0" d="M53.1,24.4c-0.8,0-1.4-0.2-1.9-0.5c-0.5-0.4-0.9-0.8-1.1-1.4c-0.3-0.6-0.4-1.2-0.4-2c0-0.7,0.1-1.4,0.4-1.9
		c0.3-0.6,0.7-1.1,1.2-1.4c0.5-0.4,1.1-0.5,1.8-0.5c0.7,0,1.3,0.1,1.7,0.5c0.4,0.3,0.8,0.7,1,1.2c0.2,0.5,0.4,1.1,0.4,1.7
		c0,0.2-0.1,0.4-0.2,0.5c-0.2,0-0.5,0-0.8,0s-0.8,0-1.3,0c-0.5,0-1,0-1.5,0s-1,0-1.4,0v-0.8h3.5c0-0.7-0.1-1.3-0.4-1.8
		c-0.3-0.5-0.6-0.7-1.1-0.7c-0.3,0-0.5,0.1-0.8,0.2c-0.3,0.1-0.5,0.5-0.6,0.8c-0.2,0.4-0.2,1-0.2,1.7c0,0.5,0,1.1,0.2,1.6
		c0.1,0.5,0.4,0.9,0.7,1.3c0.4,0.3,0.8,0.5,1.5,0.5c0.4,0,0.7-0.1,1.1-0.2c0.4-0.2,0.7-0.4,1-0.7c0.1,0,0.2,0.1,0.3,0.2
		s0.1,0.2,0.1,0.3c-0.4,0.5-0.8,0.8-1.3,1.1S53.7,24.4,53.1,24.4z"/>
	<path class="st0" d="M60.2,24.4c-0.6,0-1.1-0.2-1.4-0.5c-0.3-0.3-0.5-0.9-0.5-1.6v-4.5c-0.2,0-0.3-0.1-0.5-0.1
		c-0.2,0-0.4,0-0.7-0.1c0-0.1,0-0.3,0-0.4c0-0.1,0-0.2,0.1-0.4h1.1v-2.2c0.2,0,0.5-0.1,0.6-0.3c0.2-0.1,0.4-0.3,0.5-0.4
		c0.1,0,0.2,0.1,0.2,0.2s0,0.3,0,0.6v2.1H62c0,0.1,0,0.2,0,0.4c0,0.1,0,0.2-0.1,0.4c-0.4,0-0.8,0-1.1,0.1c-0.3,0-0.6,0.1-0.9,0.1
		v4.1c0,0.4,0,0.6,0.1,0.9c0.1,0.2,0.2,0.4,0.3,0.5c0.1,0.1,0.3,0.2,0.5,0.2c0.2,0,0.4,0,0.6-0.1c0.2,0,0.3-0.2,0.5-0.3
		c0.1,0.2,0.2,0.4,0.2,0.5c-0.2,0.2-0.5,0.4-0.8,0.5C60.9,24.3,60.5,24.4,60.2,24.4z"/>
	<path class="st0" d="M68.2,24.4c-0.1,0-0.2-0.1-0.3-0.3c-0.1-0.1-0.1-0.4-0.1-0.7c0-0.1,0-0.2,0-0.4s0-0.3,0-0.4h0
		c0,0.2-0.1,0.4-0.2,0.5c-0.1,0.2-0.3,0.4-0.5,0.5c-0.2,0.2-0.4,0.3-0.7,0.4c-0.3,0.1-0.6,0.1-1.1,0.1c-0.7,0-1.2-0.1-1.6-0.5
		c-0.4-0.3-0.5-0.7-0.5-1.3c0-0.4,0.1-0.8,0.3-1.1c0.2-0.3,0.5-0.5,0.8-0.8c0.3-0.2,0.7-0.4,1.1-0.5c0.4-0.1,0.7-0.2,1.1-0.3
		s0.7-0.1,1-0.2c0-0.5,0-0.8,0-1.1c0-0.3,0-0.5-0.1-0.6c0-0.1-0.1-0.3-0.2-0.4c-0.1-0.2-0.3-0.3-0.5-0.4c-0.2-0.1-0.4-0.1-0.5-0.1
		c-0.4,0-0.6,0.1-0.9,0.3c-0.2,0.2-0.4,0.5-0.5,0.8s-0.1,0.5-0.1,0.8c-0.1,0-0.3,0-0.5,0c-0.2,0-0.3,0-0.4-0.1c0-0.3,0-0.6,0-0.9
		c0-0.3,0-0.6-0.1-0.9c0.5-0.2,0.9-0.4,1.4-0.5c0.5-0.1,1-0.2,1.4-0.2c0.4,0,0.7,0,1.1,0.2c0.3,0.1,0.5,0.3,0.7,0.5
		c0.3,0.3,0.5,0.6,0.5,1.1S69,19.3,69,20v1.8c0,0.3,0,0.5,0.1,0.7c0,0.2,0.1,0.3,0.3,0.4c0.1,0.1,0.4,0.1,0.6,0.1c0,0.1,0,0.2,0,0.4
		s0,0.3-0.1,0.4c-0.3,0-0.6,0-0.9,0.1C68.8,24.1,68.4,24.3,68.2,24.4z M66,23.5c0.2,0,0.5-0.1,0.7-0.2c0.3-0.1,0.5-0.4,0.6-0.7
		c0.2-0.3,0.3-0.8,0.3-1.3v-0.6c-0.3,0-0.5,0.1-0.9,0.1c-0.3,0-0.6,0.1-0.9,0.3c-0.3,0.1-0.5,0.3-0.6,0.5S65,21.9,65,22.3
		c0,0.4,0.1,0.7,0.3,0.9C65.5,23.4,65.7,23.5,66,23.5z"/>
	<path class="st0" d="M72.5,20.7v-1.8c0-0.3,0-0.5-0.1-0.6c0-0.2-0.2-0.3-0.4-0.4c-0.2-0.1-0.5-0.1-0.8-0.1c0-0.1,0-0.2,0-0.3
		c0-0.1,0-0.2,0.1-0.3c0.3,0,0.7-0.1,1.2-0.2c0.5-0.1,0.8-0.2,1.1-0.4c0.1,0,0.2,0.1,0.3,0.2c0.1,0.1,0.1,0.3,0.1,0.5L72.5,20.7z
		 M74.1,21.9c0,0.5,0,0.8,0.1,1.1s0.3,0.4,0.5,0.5c0.2,0.1,0.5,0.1,0.8,0.2c0,0.1,0,0.2,0,0.3c0,0.1,0,0.2,0,0.4c-0.2,0-0.4,0-0.6,0
		c-0.2,0-0.5,0-0.7,0s-0.5,0-0.8,0c-0.4,0-0.8,0-1.2,0c-0.4,0-0.7,0-1,0c0-0.1,0-0.3,0-0.4s0-0.2,0-0.3c0.3,0,0.5-0.1,0.7-0.1
		c0.2-0.1,0.3-0.2,0.4-0.4c0-0.2,0.1-0.5,0.1-0.9v-1.7h1.5v1.3H74.1z M74.1,19.4v1.3h-1.5v-1.8l1.5-1.6c0,0.4,0,0.7-0.1,1
		c0,0.3-0.1,0.6-0.2,0.9L74.1,19.4z M73.7,19.3c0.1-0.3,0.2-0.5,0.3-0.8c0-0.2,0.1-0.4,0.2-0.5c0.2-0.4,0.5-0.7,0.9-1
		c0.3-0.3,0.7-0.4,1.1-0.4c0.4,0,0.8,0.1,1.1,0.4c0,0.2,0,0.4,0,0.6s0,0.5,0,0.7s0,0.5,0,0.6c-0.1,0-0.2,0-0.4,0.1s-0.4,0-0.5,0
		c0-0.5-0.1-0.9-0.3-1.1c-0.1-0.2-0.3-0.2-0.5-0.2c-0.2,0-0.4,0.1-0.6,0.3c-0.2,0.2-0.4,0.5-0.5,0.9c-0.1,0.4-0.2,0.7-0.2,1.2
		L73.7,19.3z"/>
	<path class="st0" d="M78.3,24.3c0-0.1,0-0.2,0-0.4s0-0.2,0-0.4c0.5,0,0.7-0.1,0.9-0.3c0.1-0.2,0.2-0.6,0.2-1.1v-3.2
		c0-0.3,0-0.5-0.1-0.6c0-0.2-0.2-0.3-0.3-0.4c-0.2-0.1-0.5-0.1-0.8-0.1c0-0.1,0-0.2,0-0.3c0-0.1,0-0.2,0.1-0.3c0.2,0,0.4,0,0.7-0.1
		c0.3,0,0.6-0.1,0.9-0.2s0.5-0.2,0.6-0.3c0.1,0,0.2,0.1,0.3,0.2c0.1,0.1,0.1,0.3,0.1,0.5v4.9c0,0.5,0.1,0.9,0.2,1.1
		c0.1,0.2,0.4,0.3,0.7,0.3c0,0.1,0,0.2,0,0.4s0,0.3,0,0.3c-0.2,0-0.4,0-0.6,0c-0.2,0-0.4,0-0.6,0c-0.2,0-0.4,0-0.6,0
		c-0.2,0-0.4,0-0.6,0c-0.2,0-0.5,0-0.6,0C78.6,24.3,78.4,24.3,78.3,24.3z M80,14.7c-0.3,0-0.5-0.1-0.7-0.3c-0.2-0.2-0.3-0.4-0.3-0.7
		c0-0.3,0.1-0.5,0.3-0.7c0.2-0.2,0.4-0.3,0.7-0.3s0.5,0.1,0.7,0.3c0.2,0.2,0.3,0.4,0.3,0.7c0,0.3-0.1,0.5-0.3,0.7S80.3,14.7,80,14.7
		z"/>
	<path class="st0" d="M85.6,20.8l-1.1,3.5H83l3.7-11.1h1.7l3.8,11.1h-1.5l-1.2-3.5H85.6z M89.3,19.7l-1.1-3.2
		c-0.2-0.7-0.4-1.4-0.6-2h0c-0.2,0.6-0.4,1.3-0.5,2l-1.1,3.2H89.3z"/>
	<path class="st0" d="M93.8,18.9c0-1,0-1.8,0-2.6H95l0,1.4h0c0.6-1,1.5-1.6,2.8-1.6c1.9,0,3.4,1.6,3.4,4.1c0,2.9-1.7,4.3-3.6,4.3
		c-1.1,0-2-0.5-2.5-1.2h0v4.3h-1.4V18.9z M95.2,21c0,0.2,0,0.4,0,0.6c0.3,1,1.1,1.7,2.2,1.7c1.5,0,2.4-1.2,2.4-3.1
		c0-1.6-0.8-3-2.4-3c-1,0-1.9,0.7-2.2,1.8c0,0.2-0.1,0.4-0.1,0.6L95.2,21L95.2,21z"/>
	<path class="st0" d="M103.2,18.9c0-1,0-1.8,0-2.6h1.3l0,1.4h0c0.6-1,1.5-1.6,2.8-1.6c1.9,0,3.4,1.6,3.4,4.1c0,2.9-1.7,4.3-3.6,4.3
		c-1.1,0-2-0.5-2.5-1.2h0v4.3h-1.4V18.9z M104.6,21c0,0.2,0,0.4,0,0.6c0.3,1,1.1,1.7,2.2,1.7c1.5,0,2.4-1.2,2.4-3.1
		c0-1.6-0.8-3-2.4-3c-1,0-1.9,0.7-2.2,1.8c0,0.2-0.1,0.4-0.1,0.6L104.6,21L104.6,21z"/>
</g>
</svg>
